<?xml version="1.0" encoding="UTF-8" standalone="no"?>
<!-- Exported by Framsticks (http://www.framsticks.com/) -->

<svg
   xmlns:dc="http://purl.org/dc/elements/1.1/"
   xmlns:cc="http://creativecommons.org/ns#"
   xmlns:rdf="http://www.w3.org/1999/02/22-rdf-syntax-ns#"
   xmlns:svg="http://www.w3.org/2000/svg"
   xmlns="http://www.w3.org/2000/svg"
   xmlns:sodipodi="http://sodipodi.sourceforge.net/DTD/sodipodi-0.dtd"
   xmlns:inkscape="http://www.inkscape.org/namespaces/inkscape"
   id="svg2"
   height="254.375"
   width="248"
   y="0.0000000"
   x="0.0000000"
   version="1.0"
   inkscape:version="0.48.1 "
   sodipodi:docname="dziecko4_3-4-3.svg">
  <metadata
     id="metadata29">
    <rdf:RDF>
      <cc:Work
         rdf:about="">
        <dc:format>image/svg+xml</dc:format>
        <dc:type
           rdf:resource="http://purl.org/dc/dcmitype/StillImage" />
        <dc:title></dc:title>
      </cc:Work>
    </rdf:RDF>
  </metadata>
  <sodipodi:namedview
     pagecolor="#ffffff"
     bordercolor="#666666"
     borderopacity="1"
     objecttolerance="10"
     gridtolerance="10"
     guidetolerance="10"
     inkscape:pageopacity="0"
     inkscape:pageshadow="2"
     inkscape:window-width="640"
     inkscape:window-height="480"
     id="namedview27"
     showgrid="false"
     fit-margin-top="0"
     fit-margin-left="0"
     fit-margin-right="0"
     fit-margin-bottom="0"
     inkscape:zoom="0.61738003"
     inkscape:cx="286.5"
     inkscape:cy="106.6875"
     inkscape:window-x="0"
     inkscape:window-y="0"
     inkscape:window-maximized="0"
     inkscape:current-layer="svg2" />
  <defs
     id="defs3" />
  <g
     id="layer1"
     transform="translate(-99,-18.8125)">
    <rect
       id="rect1"
       style="fill:#ffffff;fill-opacity:1;stroke-opacity:0"
       x="99"
       y="153"
       width="51"
       height="51" />
    <path
       id="path2"
       style="fill:none;stroke:#222222;stroke-width:1px;stroke-linecap:butt;stroke-linejoin:miter;stroke-opacity:1"
       d="m 137,178 -26,-25 0,50 26,-25 13,0 m -12,-71"
       inkscape:connector-curvature="0" />
    <path
       id="path3"
       style="fill:none;stroke:#222222;stroke-width:1px;stroke-linecap:butt;stroke-linejoin:miter;stroke-opacity:1"
       d="m 138,107 -26,-25 0,50 26,-25 13,0"
       inkscape:connector-curvature="0" />
    <rect
       id="rect4"
       style="fill:#ffffff;fill-opacity:1;stroke-opacity:0"
       x="171"
       y="222"
       width="51"
       height="51" />
    <path
       id="path5"
       style="fill:none;stroke:#222222;stroke-width:1px;stroke-linecap:butt;stroke-linejoin:miter;stroke-opacity:1"
       d="m 209,247 -26,-25 0,50 26,-25 13,0"
       inkscape:connector-curvature="0" />
    <rect
       id="rect6"
       style="fill:#ffffff;fill-opacity:1;stroke-opacity:0"
       x="171"
       y="20"
       width="51"
       height="51" />
    <path
       id="path7"
       style="fill:none;stroke:#222222;stroke-width:1px;stroke-linecap:butt;stroke-linejoin:miter;stroke-opacity:1"
       d="m 209,45 -26,-25 0,50 26,-25 13,0"
       inkscape:connector-curvature="0" />
    <rect
       id="rect8"
       style="fill:#ffffff;fill-opacity:1;stroke-opacity:0"
       x="172"
       y="155"
       width="51"
       height="51" />
    <path
       id="path9"
       style="fill:none;stroke:#222222;stroke-width:1px;stroke-linecap:butt;stroke-linejoin:miter;stroke-opacity:1"
       d="m 210,180 -26,-25 0,50 26,-25 13,0 m -12,-65"
       inkscape:connector-curvature="0" />
    <path
       id="path10"
       style="fill:none;stroke:#222222;stroke-width:1px;stroke-linecap:butt;stroke-linejoin:miter;stroke-opacity:1"
       d="m 211,115 -26,-25 0,50 26,-25 13,0"
       inkscape:connector-curvature="0" />
    <rect
       id="rect11"
       style="fill:#ffffff;fill-opacity:1;stroke-opacity:0"
       x="296"
       y="113"
       width="51"
       height="51" />
    <path
       id="path12"
       style="fill:none;stroke:#222222;stroke-width:1px;stroke-linecap:butt;stroke-linejoin:miter;stroke-opacity:1"
       d="m 334,138 -26,-25 0,50 26,-25 13,0 m -39,-13"
       inkscape:connector-curvature="0" />
    <path
       id="path13"
       style="fill:none;stroke:#444444;stroke-width:1px;stroke-linecap:butt;stroke-linejoin:miter;stroke-opacity:1"
       d="m 308,125 -9,0"
       inkscape:connector-curvature="0" />
    <path
       id="path14"
       style="fill:none;stroke:#ae6eee;stroke-width:1px;stroke-linecap:butt;stroke-linejoin:miter;stroke-opacity:1"
       d="m 299,125 -75,-10 m 84,23 -6,0 -79,42 m 85,-29 -3,0 -83,-106"
       inkscape:connector-curvature="0" />
    <rect
       id="rect15"
       style="fill:#ffffff;fill-opacity:1;stroke-opacity:0"
       x="296"
       y="43"
       width="51"
       height="51" />
    <path
       id="path16"
       style="fill:none;stroke:#222222;stroke-width:1px;stroke-linecap:butt;stroke-linejoin:miter;stroke-opacity:1"
       d="m 334,68 -26,-25 0,50 26,-25 13,0 M 308,55"
       inkscape:connector-curvature="0" />
    <path
       id="path17"
       style="fill:none;stroke:#444444;stroke-width:1px;stroke-linecap:butt;stroke-linejoin:miter;stroke-opacity:1"
       d="m 308,55 -9,0"
       inkscape:connector-curvature="0" />
    <path
       id="path18"
       style="fill:none;stroke:#ae6eee;stroke-width:1px;stroke-linecap:butt;stroke-linejoin:miter;stroke-opacity:1"
       d="m 299,55 -75,60 m 84,-47 -6,0 -79,112 m 85,-99 -3,0 -83,-36"
       inkscape:connector-curvature="0" />
    <rect
       id="rect19"
       style="fill:#ffffff;fill-opacity:1;stroke-opacity:0"
       x="295"
       y="192"
       width="51"
       height="51" />
    <path
       id="path20"
       style="fill:none;stroke:#222222;stroke-width:1px;stroke-linecap:butt;stroke-linejoin:miter;stroke-opacity:1"
       d="m 333,217 -26,-25 0,50 26,-25 13,0 m -39,-15"
       inkscape:connector-curvature="0" />
    <path
       id="path21"
       style="fill:none;stroke:#444444;stroke-width:1px;stroke-linecap:butt;stroke-linejoin:miter;stroke-opacity:1"
       d="m 307,202 -10,0"
       inkscape:connector-curvature="0" />
    <path
       id="path22"
       style="fill:none;stroke:#ae6eee;stroke-width:1px;stroke-linecap:butt;stroke-linejoin:miter;stroke-opacity:1"
       d="m 297,202 -73,-87 m 83,97 -7,0 -77,-32 m 84,42 -5,0 -80,-177 m 85,187 -2,0 -83,15"
       inkscape:connector-curvature="0" />
  </g>
</svg>
