<?xml version="1.0" encoding="UTF-8" standalone="no"?>
<!-- Exported by Framsticks (http://www.framsticks.com/) -->

<svg
   xmlns:dc="http://purl.org/dc/elements/1.1/"
   xmlns:cc="http://creativecommons.org/ns#"
   xmlns:rdf="http://www.w3.org/1999/02/22-rdf-syntax-ns#"
   xmlns:svg="http://www.w3.org/2000/svg"
   xmlns="http://www.w3.org/2000/svg"
   xmlns:sodipodi="http://sodipodi.sourceforge.net/DTD/sodipodi-0.dtd"
   xmlns:inkscape="http://www.inkscape.org/namespaces/inkscape"
   id="svg2"
   height="453"
   width="258.5"
   y="0.0000000"
   x="0.0000000"
   version="1.0"
   inkscape:version="0.48.1 "
   sodipodi:docname="dziecko2_1111 i 6-12-8b.svg">
  <metadata
     id="metadata133">
    <rdf:RDF>
      <cc:Work
         rdf:about="">
        <dc:format>image/svg+xml</dc:format>
        <dc:type
           rdf:resource="http://purl.org/dc/dcmitype/StillImage" />
        <dc:title></dc:title>
      </cc:Work>
    </rdf:RDF>
  </metadata>
  <sodipodi:namedview
     pagecolor="#ffffff"
     bordercolor="#666666"
     borderopacity="1"
     objecttolerance="10"
     gridtolerance="10"
     guidetolerance="10"
     inkscape:pageopacity="0"
     inkscape:pageshadow="2"
     inkscape:window-width="640"
     inkscape:window-height="480"
     id="namedview131"
     showgrid="false"
     fit-margin-top="0"
     fit-margin-left="0"
     fit-margin-right="0"
     fit-margin-bottom="0"
     inkscape:zoom="0.44822257"
     inkscape:cx="-76.5"
     inkscape:cy="135"
     inkscape:window-x="0"
     inkscape:window-y="0"
     inkscape:window-maximized="0"
     inkscape:current-layer="svg2" />
  <defs
     id="defs3" />
  <g
     id="layer1"
     transform="translate(-594,-5.5)">
    <rect
       id="rect1"
       style="fill:#ffffff;fill-opacity:1;stroke-opacity:0"
       x="594"
       y="331"
       width="25"
       height="25" />
    <path
       id="path2"
       style="fill:none;stroke:#222222;stroke-width:1px;stroke-linecap:butt;stroke-linejoin:miter;stroke-opacity:1"
       d="m 612,343 -12,-12 0,24 12,-12 7,0"
       inkscape:connector-curvature="0" />
    <rect
       id="rect3"
       style="fill:#ffffff;fill-opacity:1;stroke-opacity:0"
       x="596"
       y="294"
       width="25"
       height="25" />
    <path
       id="path4"
       style="fill:none;stroke:#222222;stroke-width:1px;stroke-linecap:butt;stroke-linejoin:miter;stroke-opacity:1"
       d="m 614,306 -12,-12 0,24 12,-12 7,0 m 50,-38"
       inkscape:connector-curvature="0" />
    <path
       id="path5"
       style="fill:none;stroke:#222222;stroke-width:1px;stroke-linecap:butt;stroke-linejoin:miter;stroke-opacity:1"
       d="m 671,268 -12,-12 0,24 12,-12 7,0 m -19,0"
       inkscape:connector-curvature="0" />
    <path
       id="path6"
       style="fill:none;stroke:#444444;stroke-width:1px;stroke-linecap:butt;stroke-linejoin:miter;stroke-opacity:1"
       d="m 659,268 -3,0"
       inkscape:connector-curvature="0" />
    <path
       id="path7"
       style="fill:none;stroke:#ae6eee;stroke-width:1px;stroke-linecap:butt;stroke-linejoin:miter;stroke-opacity:1"
       d="m 656,268 -13,0 m 111,0"
       inkscape:connector-curvature="0" />
    <path
       id="path8"
       style="fill:none;stroke:#222222;stroke-width:1px;stroke-linecap:butt;stroke-linejoin:miter;stroke-opacity:1"
       d="m 754,268 -12,-12 0,24 12,-12 7,0 m -19,-4"
       inkscape:connector-curvature="0" />
    <path
       id="path9"
       style="fill:none;stroke:#444444;stroke-width:1px;stroke-linecap:butt;stroke-linejoin:miter;stroke-opacity:1"
       d="m 742,264 -4,0"
       inkscape:connector-curvature="0" />
    <path
       id="path10"
       style="fill:none;stroke:#ae6eee;stroke-width:1px;stroke-linecap:butt;stroke-linejoin:miter;stroke-opacity:1"
       d="m 738,264 0,-10 23,0 0,14 m -19,4 -2,0 -62,-4 m 106,-2"
       inkscape:connector-curvature="0" />
    <path
       id="path11"
       style="fill:none;stroke:#222222;stroke-width:1px;stroke-linecap:butt;stroke-linejoin:miter;stroke-opacity:1"
       d="m 784,266 -12,-12 0,24 12,-12 7,0 m -19,-4"
       inkscape:connector-curvature="0" />
    <path
       id="path12"
       style="fill:none;stroke:#444444;stroke-width:1px;stroke-linecap:butt;stroke-linejoin:miter;stroke-opacity:1"
       d="m 772,262 -4,0"
       inkscape:connector-curvature="0" />
    <path
       id="path13"
       style="fill:none;stroke:#ad6eee;stroke-width:1px;stroke-linecap:butt;stroke-linejoin:miter;stroke-opacity:1"
       d="m 768,262 0,-10 23,0 0,14 m -19,4 -2,0"
       inkscape:connector-curvature="0" />
    <path
       id="path14"
       style="fill:none;stroke:#ae6eee;stroke-width:1px;stroke-linecap:butt;stroke-linejoin:miter;stroke-opacity:1"
       d="m 770,270 -9,-2 m 54,-3"
       inkscape:connector-curvature="0" />
    <path
       id="path15"
       style="fill:none;stroke:#222222;stroke-width:1px;stroke-linecap:butt;stroke-linejoin:miter;stroke-opacity:1"
       d="m 815,265 -12,-12 0,24 12,-12 7,0 m -19,-4"
       inkscape:connector-curvature="0" />
    <path
       id="path16"
       style="fill:none;stroke:#444444;stroke-width:1px;stroke-linecap:butt;stroke-linejoin:miter;stroke-opacity:1"
       d="m 803,261 -4,0"
       inkscape:connector-curvature="0" />
    <path
       id="path17"
       style="fill:none;stroke:#ad6eee;stroke-width:1px;stroke-linecap:butt;stroke-linejoin:miter;stroke-opacity:1"
       d="m 799,261 0,-10 23,0 0,14 m -19,4 -2,0 -10,-3 m 54,-1"
       inkscape:connector-curvature="0" />
    <path
       id="path18"
       style="fill:none;stroke:#222222;stroke-width:1px;stroke-linecap:butt;stroke-linejoin:miter;stroke-opacity:1"
       d="m 845,265 -12,-12 0,24 12,-12 7,0 m -19,0"
       inkscape:connector-curvature="0" />
    <path
       id="path19"
       style="fill:none;stroke:#444444;stroke-width:1px;stroke-linecap:butt;stroke-linejoin:miter;stroke-opacity:1"
       d="m 833,265 -3,0"
       inkscape:connector-curvature="0" />
    <path
       id="path20"
       style="fill:none;stroke:#ad6eee;stroke-width:1px;stroke-linecap:butt;stroke-linejoin:miter;stroke-opacity:1"
       d="m 830,265 -8,0 m -186,3"
       inkscape:connector-curvature="0" />
    <path
       id="path21"
       style="fill:none;stroke:#222222;stroke-width:1px;stroke-linecap:butt;stroke-linejoin:miter;stroke-opacity:1"
       d="m 636,268 -12,-12 0,24 12,-12 7,0 m -7,-36"
       inkscape:connector-curvature="0" />
    <path
       id="path22"
       style="fill:none;stroke:#222222;stroke-width:1px;stroke-linecap:butt;stroke-linejoin:miter;stroke-opacity:1"
       d="m 636,232 -12,-12 0,24 12,-12 7,0 m 28,0"
       inkscape:connector-curvature="0" />
    <path
       id="path23"
       style="fill:none;stroke:#222222;stroke-width:1px;stroke-linecap:butt;stroke-linejoin:miter;stroke-opacity:1"
       d="m 671,232 -12,-12 0,24 12,-12 7,0 m -19,-9"
       inkscape:connector-curvature="0" />
    <path
       id="path24"
       style="fill:none;stroke:#444444;stroke-width:1px;stroke-linecap:butt;stroke-linejoin:miter;stroke-opacity:1"
       d="m 659,223 -6,0"
       inkscape:connector-curvature="0" />
    <path
       id="path25"
       style="fill:none;stroke:#ae6eee;stroke-width:1px;stroke-linecap:butt;stroke-linejoin:miter;stroke-opacity:1"
       d="m 653,223 -10,9 m 16,-5 -5,0 -11,41 m 16,-38 -4,0 0,20 197,0 0,15 m -193,-31 -3,0"
       inkscape:connector-curvature="0" />
    <path
       id="path26"
       style="fill:none;stroke:#ad6eee;stroke-width:1px;stroke-linecap:butt;stroke-linejoin:miter;stroke-opacity:1"
       d="m 656,234 0,14 166,0 0,17 m -163,-28 -2,0 0,10 134,0 0,19 m -132,-25 -1,0"
       inkscape:connector-curvature="0" />
    <path
       id="path27"
       style="fill:none;stroke:#ae6eee;stroke-width:1px;stroke-linecap:butt;stroke-linejoin:miter;stroke-opacity:1"
       d="m 658,241 0,5 103,0 0,22 m -90,-71"
       inkscape:connector-curvature="0" />
    <path
       id="path28"
       style="fill:none;stroke:#222222;stroke-width:1px;stroke-linecap:butt;stroke-linejoin:miter;stroke-opacity:1"
       d="m 671,197 -12,-12 0,24 12,-12 7,0 m -19,-9"
       inkscape:connector-curvature="0" />
    <path
       id="path29"
       style="fill:none;stroke:#444444;stroke-width:1px;stroke-linecap:butt;stroke-linejoin:miter;stroke-opacity:1"
       d="m 659,188 -6,0"
       inkscape:connector-curvature="0" />
    <path
       id="path30"
       style="fill:none;stroke:#ae6eee;stroke-width:1px;stroke-linecap:butt;stroke-linejoin:miter;stroke-opacity:1"
       d="m 653,188 -10,44 m 16,-40 -5,0 -11,76 m 16,-73 -4,0 0,20 197,0 0,50 m -193,-66 -3,0"
       inkscape:connector-curvature="0" />
    <path
       id="path31"
       style="fill:none;stroke:#ad6eee;stroke-width:1px;stroke-linecap:butt;stroke-linejoin:miter;stroke-opacity:1"
       d="m 656,199 0,14 166,0 0,52 m -163,-63 -2,0 0,10 134,0 0,54 m -132,-60 -1,0"
       inkscape:connector-curvature="0" />
    <path
       id="path32"
       style="fill:none;stroke:#ae6eee;stroke-width:1px;stroke-linecap:butt;stroke-linejoin:miter;stroke-opacity:1"
       d="m 658,206 0,5 103,0 0,57 M 671,161"
       inkscape:connector-curvature="0" />
    <path
       id="path33"
       style="fill:none;stroke:#222222;stroke-width:1px;stroke-linecap:butt;stroke-linejoin:miter;stroke-opacity:1"
       d="m 671,161 -12,-12 0,24 12,-12 7,0 m -19,-9"
       inkscape:connector-curvature="0" />
    <path
       id="path34"
       style="fill:none;stroke:#444444;stroke-width:1px;stroke-linecap:butt;stroke-linejoin:miter;stroke-opacity:1"
       d="m 659,152 -6,0"
       inkscape:connector-curvature="0" />
    <path
       id="path35"
       style="fill:none;stroke:#ae6eee;stroke-width:1px;stroke-linecap:butt;stroke-linejoin:miter;stroke-opacity:1"
       d="m 653,152 -10,80 m 16,-76 -5,0 -11,112 m 16,-109 -4,0 0,20 197,0 0,86 m -193,-102 -3,0"
       inkscape:connector-curvature="0" />
    <path
       id="path36"
       style="fill:none;stroke:#ad6eee;stroke-width:1px;stroke-linecap:butt;stroke-linejoin:miter;stroke-opacity:1"
       d="m 656,163 0,14 166,0 0,88 m -163,-99 -2,0 0,10 134,0 0,90 m -132,-96 -1,0"
       inkscape:connector-curvature="0" />
    <path
       id="path37"
       style="fill:none;stroke:#ae6eee;stroke-width:1px;stroke-linecap:butt;stroke-linejoin:miter;stroke-opacity:1"
       d="m 658,170 0,5 103,0 0,93 m -90,36"
       inkscape:connector-curvature="0" />
    <path
       id="path38"
       style="fill:none;stroke:#222222;stroke-width:1px;stroke-linecap:butt;stroke-linejoin:miter;stroke-opacity:1"
       d="m 671,304 -12,-12 0,24 12,-12 7,0 m -19,-9"
       inkscape:connector-curvature="0" />
    <path
       id="path39"
       style="fill:none;stroke:#444444;stroke-width:1px;stroke-linecap:butt;stroke-linejoin:miter;stroke-opacity:1"
       d="m 659,295 -6,0"
       inkscape:connector-curvature="0" />
    <path
       id="path40"
       style="fill:none;stroke:#ae6eee;stroke-width:1px;stroke-linecap:butt;stroke-linejoin:miter;stroke-opacity:1"
       d="m 653,295 -10,-63 m 16,67 -5,0 -11,-31 m 16,34 -4,0 0,-13 197,0 0,-24 m -193,41 -3,0"
       inkscape:connector-curvature="0" />
    <path
       id="path41"
       style="fill:none;stroke:#ad6eee;stroke-width:1px;stroke-linecap:butt;stroke-linejoin:miter;stroke-opacity:1"
       d="m 656,306 0,-18 166,0 0,-23 m -163,44 -2,0 0,-22 134,0 0,-21 m -132,47 -1,0"
       inkscape:connector-curvature="0" />
    <path
       id="path42"
       style="fill:none;stroke:#ae6eee;stroke-width:1px;stroke-linecap:butt;stroke-linejoin:miter;stroke-opacity:1"
       d="m 658,313 0,-28 103,0 0,-17 M 671,125"
       inkscape:connector-curvature="0" />
    <path
       id="path43"
       style="fill:none;stroke:#222222;stroke-width:1px;stroke-linecap:butt;stroke-linejoin:miter;stroke-opacity:1"
       d="m 671,125 -12,-12 0,24 12,-12 7,0 m -19,-9"
       inkscape:connector-curvature="0" />
    <path
       id="path44"
       style="fill:none;stroke:#444444;stroke-width:1px;stroke-linecap:butt;stroke-linejoin:miter;stroke-opacity:1"
       d="m 659,116 -6,0"
       inkscape:connector-curvature="0" />
    <path
       id="path45"
       style="fill:none;stroke:#ae6eee;stroke-width:1px;stroke-linecap:butt;stroke-linejoin:miter;stroke-opacity:1"
       d="m 653,116 -10,116 m 16,-112 -5,0 -11,148 m 16,-145 -4,0 0,20 197,0 0,122 m -193,-138 -3,0"
       inkscape:connector-curvature="0" />
    <path
       id="path46"
       style="fill:none;stroke:#ad6eee;stroke-width:1px;stroke-linecap:butt;stroke-linejoin:miter;stroke-opacity:1"
       d="m 656,127 0,14 166,0 0,124 m -163,-135 -2,0 0,10 134,0 0,126 m -132,-132 -1,0"
       inkscape:connector-curvature="0" />
    <path
       id="path47"
       style="fill:none;stroke:#ae6eee;stroke-width:1px;stroke-linecap:butt;stroke-linejoin:miter;stroke-opacity:1"
       d="m 658,134 0,5 103,0 0,129 m -90,71"
       inkscape:connector-curvature="0" />
    <path
       id="path48"
       style="fill:none;stroke:#222222;stroke-width:1px;stroke-linecap:butt;stroke-linejoin:miter;stroke-opacity:1"
       d="m 671,339 -12,-12 0,24 12,-12 7,0 m -19,-9"
       inkscape:connector-curvature="0" />
    <path
       id="path49"
       style="fill:none;stroke:#444444;stroke-width:1px;stroke-linecap:butt;stroke-linejoin:miter;stroke-opacity:1"
       d="m 659,330 -6,0"
       inkscape:connector-curvature="0" />
    <path
       id="path50"
       style="fill:none;stroke:#ae6eee;stroke-width:1px;stroke-linecap:butt;stroke-linejoin:miter;stroke-opacity:1"
       d="m 653,330 -10,-98 m 16,102 -5,0 -11,-66 m 16,69 -4,0 0,-13 197,0 0,-59 m -193,76 -3,0"
       inkscape:connector-curvature="0" />
    <path
       id="path51"
       style="fill:none;stroke:#ad6eee;stroke-width:1px;stroke-linecap:butt;stroke-linejoin:miter;stroke-opacity:1"
       d="m 656,341 0,-18 166,0 0,-58 m -163,79 -2,0 0,-22 134,0 0,-56 m -132,82 -1,0"
       inkscape:connector-curvature="0" />
    <path
       id="path52"
       style="fill:none;stroke:#ae6eee;stroke-width:1px;stroke-linecap:butt;stroke-linejoin:miter;stroke-opacity:1"
       d="m 658,348 0,-28 103,0 0,-52 M 671,90"
       inkscape:connector-curvature="0" />
    <path
       id="path53"
       style="fill:none;stroke:#222222;stroke-width:1px;stroke-linecap:butt;stroke-linejoin:miter;stroke-opacity:1"
       d="m 671,90 -12,-12 0,24 12,-12 7,0 m -19,-9"
       inkscape:connector-curvature="0" />
    <path
       id="path54"
       style="fill:none;stroke:#444444;stroke-width:1px;stroke-linecap:butt;stroke-linejoin:miter;stroke-opacity:1"
       d="m 659,81 -6,0"
       inkscape:connector-curvature="0" />
    <path
       id="path55"
       style="fill:none;stroke:#ae6eee;stroke-width:1px;stroke-linecap:butt;stroke-linejoin:miter;stroke-opacity:1"
       d="m 653,81 -10,151 m 16,-147 -5,0 -11,183 m 16,-180 -4,0 0,20 197,0 0,157 M 659,92 l -3,0"
       inkscape:connector-curvature="0" />
    <path
       id="path56"
       style="fill:none;stroke:#ad6eee;stroke-width:1px;stroke-linecap:butt;stroke-linejoin:miter;stroke-opacity:1"
       d="m 656,92 0,14 166,0 0,159 M 659,95 l -2,0 0,10 134,0 0,161 M 659,99 l -1,0"
       inkscape:connector-curvature="0" />
    <path
       id="path57"
       style="fill:none;stroke:#ae6eee;stroke-width:1px;stroke-linecap:butt;stroke-linejoin:miter;stroke-opacity:1"
       d="m 658,99 0,5 103,0 0,164 m -90,107"
       inkscape:connector-curvature="0" />
    <path
       id="path58"
       style="fill:none;stroke:#222222;stroke-width:1px;stroke-linecap:butt;stroke-linejoin:miter;stroke-opacity:1"
       d="m 671,375 -12,-12 0,24 12,-12 7,0 m -19,-9"
       inkscape:connector-curvature="0" />
    <path
       id="path59"
       style="fill:none;stroke:#444444;stroke-width:1px;stroke-linecap:butt;stroke-linejoin:miter;stroke-opacity:1"
       d="m 659,366 -6,0"
       inkscape:connector-curvature="0" />
    <path
       id="path60"
       style="fill:none;stroke:#ae6eee;stroke-width:1px;stroke-linecap:butt;stroke-linejoin:miter;stroke-opacity:1"
       d="M 653,366 643,232 m 16,138 -5,0 -11,-102 m 16,105 -4,0 0,-13 197,0 0,-95 m -193,112 -3,0"
       inkscape:connector-curvature="0" />
    <path
       id="path61"
       style="fill:none;stroke:#ad6eee;stroke-width:1px;stroke-linecap:butt;stroke-linejoin:miter;stroke-opacity:1"
       d="m 656,377 0,-18 166,0 0,-94 m -163,115 -2,0 0,-22 134,0 0,-92 m -132,118 -1,0"
       inkscape:connector-curvature="0" />
    <path
       id="path62"
       style="fill:none;stroke:#ae6eee;stroke-width:1px;stroke-linecap:butt;stroke-linejoin:miter;stroke-opacity:1"
       d="m 658,384 0,-28 103,0 0,-88 M 671,54"
       inkscape:connector-curvature="0" />
    <path
       id="path63"
       style="fill:none;stroke:#222222;stroke-width:1px;stroke-linecap:butt;stroke-linejoin:miter;stroke-opacity:1"
       d="m 671,54 -12,-12 0,24 12,-12 7,0 m -19,-9"
       inkscape:connector-curvature="0" />
    <path
       id="path64"
       style="fill:none;stroke:#444444;stroke-width:1px;stroke-linecap:butt;stroke-linejoin:miter;stroke-opacity:1"
       d="m 659,45 -6,0"
       inkscape:connector-curvature="0" />
    <path
       id="path65"
       style="fill:none;stroke:#ae6eee;stroke-width:1px;stroke-linecap:butt;stroke-linejoin:miter;stroke-opacity:1"
       d="m 653,45 -10,187 m 16,-183 -5,0 -11,219 m 16,-216 -4,0 0,20 197,0 0,193 M 659,56 l -3,0"
       inkscape:connector-curvature="0" />
    <path
       id="path66"
       style="fill:none;stroke:#ad6eee;stroke-width:1px;stroke-linecap:butt;stroke-linejoin:miter;stroke-opacity:1"
       d="m 656,56 0,14 166,0 0,195 M 659,59 l -2,0 0,10 134,0 0,197 M 659,63 l -1,0"
       inkscape:connector-curvature="0" />
    <path
       id="path67"
       style="fill:none;stroke:#ae6eee;stroke-width:1px;stroke-linecap:butt;stroke-linejoin:miter;stroke-opacity:1"
       d="m 658,63 0,5 103,0 0,200 m -90,143"
       inkscape:connector-curvature="0" />
    <path
       id="path68"
       style="fill:none;stroke:#222222;stroke-width:1px;stroke-linecap:butt;stroke-linejoin:miter;stroke-opacity:1"
       d="m 671,411 -12,-12 0,24 12,-12 7,0 m -19,-9"
       inkscape:connector-curvature="0" />
    <path
       id="path69"
       style="fill:none;stroke:#444444;stroke-width:1px;stroke-linecap:butt;stroke-linejoin:miter;stroke-opacity:1"
       d="m 659,402 -6,0"
       inkscape:connector-curvature="0" />
    <path
       id="path70"
       style="fill:none;stroke:#ae6eee;stroke-width:1px;stroke-linecap:butt;stroke-linejoin:miter;stroke-opacity:1"
       d="M 653,402 643,232 m 16,174 -5,0 -11,-138 m 16,141 -4,0 0,-13 197,0 0,-131 m -193,148 -3,0"
       inkscape:connector-curvature="0" />
    <path
       id="path71"
       style="fill:none;stroke:#ad6eee;stroke-width:1px;stroke-linecap:butt;stroke-linejoin:miter;stroke-opacity:1"
       d="m 656,413 0,-18 166,0 0,-130 m -163,151 -2,0 0,-22 134,0 0,-128 m -132,154 -1,0"
       inkscape:connector-curvature="0" />
    <path
       id="path72"
       style="fill:none;stroke:#ae6eee;stroke-width:1px;stroke-linecap:butt;stroke-linejoin:miter;stroke-opacity:1"
       d="m 658,420 0,-28 103,0 0,-124 M 671,18"
       inkscape:connector-curvature="0" />
    <path
       id="path73"
       style="fill:none;stroke:#222222;stroke-width:1px;stroke-linecap:butt;stroke-linejoin:miter;stroke-opacity:1"
       d="m 671,18 -12,-12 0,24 12,-12 7,0 M 659,9"
       inkscape:connector-curvature="0" />
    <path
       id="path74"
       style="fill:none;stroke:#444444;stroke-width:1px;stroke-linecap:butt;stroke-linejoin:miter;stroke-opacity:1"
       d="m 659,9 -6,0"
       inkscape:connector-curvature="0" />
    <path
       id="path75"
       style="fill:none;stroke:#ae6eee;stroke-width:1px;stroke-linecap:butt;stroke-linejoin:miter;stroke-opacity:1"
       d="m 653,9 -10,223 m 16,-219 -5,0 -11,255 m 16,-252 -4,0 0,20 197,0 0,229 M 659,20 l -3,0"
       inkscape:connector-curvature="0" />
    <path
       id="path76"
       style="fill:none;stroke:#ad6eee;stroke-width:1px;stroke-linecap:butt;stroke-linejoin:miter;stroke-opacity:1"
       d="m 656,20 0,14 166,0 0,231 M 659,23 l -2,0 0,10 134,0 0,233 M 659,27 l -1,0"
       inkscape:connector-curvature="0" />
    <path
       id="path77"
       style="fill:none;stroke:#ae6eee;stroke-width:1px;stroke-linecap:butt;stroke-linejoin:miter;stroke-opacity:1"
       d="m 658,27 0,5 103,0 0,236 m -90,178"
       inkscape:connector-curvature="0" />
    <path
       id="path78"
       style="fill:none;stroke:#222222;stroke-width:1px;stroke-linecap:butt;stroke-linejoin:miter;stroke-opacity:1"
       d="m 671,446 -12,-12 0,24 12,-12 7,0 m -19,-9"
       inkscape:connector-curvature="0" />
    <path
       id="path79"
       style="fill:none;stroke:#444444;stroke-width:1px;stroke-linecap:butt;stroke-linejoin:miter;stroke-opacity:1"
       d="m 659,437 -6,0"
       inkscape:connector-curvature="0" />
    <path
       id="path80"
       style="fill:none;stroke:#ae6eee;stroke-width:1px;stroke-linecap:butt;stroke-linejoin:miter;stroke-opacity:1"
       d="M 653,437 643,232 m 16,209 -5,0 -11,-173 m 16,176 -4,0 0,-13 197,0 0,-166 m -193,183 -3,0"
       inkscape:connector-curvature="0" />
    <path
       id="path81"
       style="fill:none;stroke:#ad6eee;stroke-width:1px;stroke-linecap:butt;stroke-linejoin:miter;stroke-opacity:1"
       d="m 656,448 0,-18 166,0 0,-165 m -163,186 -2,0 0,-22 134,0 0,-163 m -132,189 -1,0"
       inkscape:connector-curvature="0" />
    <path
       id="path82"
       style="fill:none;stroke:#ae6eee;stroke-width:1px;stroke-linecap:butt;stroke-linejoin:miter;stroke-opacity:1"
       d="m 658,455 0,-28 103,0 0,-159 M 747,84"
       inkscape:connector-curvature="0" />
    <path
       id="path83"
       style="fill:none;stroke:#222222;stroke-width:1px;stroke-linecap:butt;stroke-linejoin:miter;stroke-opacity:1"
       d="m 747,84 -12,-12 0,24 12,-12 7,0 M 735,73"
       inkscape:connector-curvature="0" />
    <path
       id="path84"
       style="fill:none;stroke:#444444;stroke-width:1px;stroke-linecap:butt;stroke-linejoin:miter;stroke-opacity:1"
       d="m 735,73 -6,0"
       inkscape:connector-curvature="0" />
    <path
       id="path85"
       style="fill:none;stroke:#ae6eee;stroke-width:1px;stroke-linecap:butt;stroke-linejoin:miter;stroke-opacity:1"
       d="m 729,73 -51,373 m 57,-371 -6,0 -51,-57 m 57,59 -5,0 -52,334 m 57,-332 -5,0 -52,-25 m 57,27 -4,0 -53,294 m 57,-292 -4,0 -53,7 m 57,-5 -3,0 -54,254 m 57,-252 -3,0"
       inkscape:connector-curvature="0" />
    <path
       id="path86"
       style="fill:none;stroke:#ad6eee;stroke-width:1px;stroke-linecap:butt;stroke-linejoin:miter;stroke-opacity:1"
       d="m 732,87 -54,38 m 57,-36 -2,0 -55,215 m 57,-213 -2,0"
       inkscape:connector-curvature="0" />
    <path
       id="path87"
       style="fill:none;stroke:#ae6eee;stroke-width:1px;stroke-linecap:butt;stroke-linejoin:miter;stroke-opacity:1"
       d="m 733,91 -55,70 m 57,-68 -1,0 -56,104 m 57,-102 -1,0 -56,137 m 66,145"
       inkscape:connector-curvature="0" />
    <path
       id="path88"
       style="fill:none;stroke:#222222;stroke-width:1px;stroke-linecap:butt;stroke-linejoin:miter;stroke-opacity:1"
       d="m 744,377 -12,-12 0,24 12,-12 7,0 m -19,-11"
       inkscape:connector-curvature="0" />
    <path
       id="path89"
       style="fill:none;stroke:#444444;stroke-width:1px;stroke-linecap:butt;stroke-linejoin:miter;stroke-opacity:1"
       d="m 732,366 -6,0"
       inkscape:connector-curvature="0" />
    <path
       id="path90"
       style="fill:none;stroke:#ae6eee;stroke-width:1px;stroke-linecap:butt;stroke-linejoin:miter;stroke-opacity:1"
       d="m 726,366 -48,80 m 54,-78 -6,0 -48,-350 m 54,352 -5,0 -49,41 m 54,-39 -5,0 -49,-318 m 54,320 -4,0 -50,1 m 54,1 -4,0 -50,-286 m 54,288 -3,0 -51,-39 m 54,41 -3,0"
       inkscape:connector-curvature="0" />
    <path
       id="path91"
       style="fill:none;stroke:#ad6eee;stroke-width:1px;stroke-linecap:butt;stroke-linejoin:miter;stroke-opacity:1"
       d="M 729,380 678,125 m 54,257 -2,0 -52,-78 m 54,80 -2,0"
       inkscape:connector-curvature="0" />
    <path
       id="path92"
       style="fill:none;stroke:#ae6eee;stroke-width:1px;stroke-linecap:butt;stroke-linejoin:miter;stroke-opacity:1"
       d="M 730,384 678,161 m 54,225 -1,0 -53,-189 m 54,191 -1,0 -53,-156"
       inkscape:connector-curvature="0" />
    <rect
       id="rect93"
       style="fill:#ffffff;fill-opacity:1;stroke-opacity:0"
       x="723"
       y="219"
       width="25"
       height="25" />
    <path
       id="path94"
       style="fill:none;stroke:#222222;stroke-width:1px;stroke-linecap:butt;stroke-linejoin:miter;stroke-opacity:1"
       d="m 741,231 -12,-12 0,24 12,-12 7,0 m -19,-11"
       inkscape:connector-curvature="0" />
    <path
       id="path95"
       style="fill:none;stroke:#444444;stroke-width:1px;stroke-linecap:butt;stroke-linejoin:miter;stroke-opacity:1"
       d="m 729,220 -6,0"
       inkscape:connector-curvature="0" />
    <path
       id="path96"
       style="fill:none;stroke:#ae6eee;stroke-width:1px;stroke-linecap:butt;stroke-linejoin:miter;stroke-opacity:1"
       d="m 723,220 -45,226 m 51,-224 -6,0 -45,-204 m 51,206 -5,0 -46,187 m 51,-185 -5,0 -46,-172 m 51,174 -4,0 -47,147 m 51,-145 -4,0 -47,-140 m 51,142 -3,0 -48,107 m 51,-105 -3,0"
       inkscape:connector-curvature="0" />
    <path
       id="path97"
       style="fill:none;stroke:#ad6eee;stroke-width:1px;stroke-linecap:butt;stroke-linejoin:miter;stroke-opacity:1"
       d="M 726,234 678,125 m 51,111 -2,0 -49,68 m 51,-66 -2,0"
       inkscape:connector-curvature="0" />
    <path
       id="path98"
       style="fill:none;stroke:#ae6eee;stroke-width:1px;stroke-linecap:butt;stroke-linejoin:miter;stroke-opacity:1"
       d="m 727,238 -49,-77 m 51,79 -1,0 -50,-43 m 51,45 -1,0 -50,-10 m 67,108"
       inkscape:connector-curvature="0" />
    <path
       id="path99"
       style="fill:none;stroke:#222222;stroke-width:1px;stroke-linecap:butt;stroke-linejoin:miter;stroke-opacity:1"
       d="m 745,340 -12,-12 0,24 12,-12 7,0 m -19,-11"
       inkscape:connector-curvature="0" />
    <path
       id="path100"
       style="fill:none;stroke:#444444;stroke-width:1px;stroke-linecap:butt;stroke-linejoin:miter;stroke-opacity:1"
       d="m 733,329 -6,0"
       inkscape:connector-curvature="0" />
    <path
       id="path101"
       style="fill:none;stroke:#ae6eee;stroke-width:1px;stroke-linecap:butt;stroke-linejoin:miter;stroke-opacity:1"
       d="m 727,329 -49,117 m 55,-115 -6,0 -49,-313 m 55,315 -5,0 -50,78 m 55,-76 -5,0 -50,-281 m 55,283 -4,0 -51,38 m 55,-36 -4,0 -51,-249 m 55,251 -3,0 -52,-2 m 55,4 -3,0"
       inkscape:connector-curvature="0" />
    <path
       id="path102"
       style="fill:none;stroke:#ad6eee;stroke-width:1px;stroke-linecap:butt;stroke-linejoin:miter;stroke-opacity:1"
       d="M 730,343 678,125 m 55,220 -2,0 -53,-41 m 55,43 -2,0"
       inkscape:connector-curvature="0" />
    <path
       id="path103"
       style="fill:none;stroke:#ae6eee;stroke-width:1px;stroke-linecap:butt;stroke-linejoin:miter;stroke-opacity:1"
       d="M 731,347 678,161 m 55,188 -1,0 -54,-152 m 55,154 -1,0 -54,-119"
       inkscape:connector-curvature="0" />
    <rect
       id="rect104"
       style="fill:#ffffff;fill-opacity:1;stroke-opacity:0"
       x="725"
       y="144"
       width="25"
       height="25" />
    <path
       id="path105"
       style="fill:none;stroke:#222222;stroke-width:1px;stroke-linecap:butt;stroke-linejoin:miter;stroke-opacity:1"
       d="m 743,156 -12,-12 0,24 12,-12 7,0 m -19,-11"
       inkscape:connector-curvature="0" />
    <path
       id="path106"
       style="fill:none;stroke:#444444;stroke-width:1px;stroke-linecap:butt;stroke-linejoin:miter;stroke-opacity:1"
       d="m 731,145 -6,0"
       inkscape:connector-curvature="0" />
    <path
       id="path107"
       style="fill:none;stroke:#ae6eee;stroke-width:1px;stroke-linecap:butt;stroke-linejoin:miter;stroke-opacity:1"
       d="m 725,145 -47,301 m 53,-299 -6,0 -47,-129 m 53,131 -5,0 -48,262 m 53,-260 -5,0 -48,-97 m 53,99 -4,0 -49,222 m 53,-220 -4,0 -49,-65 m 53,67 -3,0 -50,182 m 53,-180 -3,0"
       inkscape:connector-curvature="0" />
    <path
       id="path108"
       style="fill:none;stroke:#ad6eee;stroke-width:1px;stroke-linecap:butt;stroke-linejoin:miter;stroke-opacity:1"
       d="m 728,159 -50,-34 m 53,36 -2,0 -51,143 m 53,-141 -2,0"
       inkscape:connector-curvature="0" />
    <path
       id="path109"
       style="fill:none;stroke:#ae6eee;stroke-width:1px;stroke-linecap:butt;stroke-linejoin:miter;stroke-opacity:1"
       d="m 729,163 -51,-2 m 53,4 -1,0 -52,32 m 53,-30 -1,0 -52,65 m 64,73"
       inkscape:connector-curvature="0" />
    <path
       id="path110"
       style="fill:none;stroke:#222222;stroke-width:1px;stroke-linecap:butt;stroke-linejoin:miter;stroke-opacity:1"
       d="m 742,305 -12,-12 0,24 12,-12 7,0 m -19,-11"
       inkscape:connector-curvature="0" />
    <path
       id="path111"
       style="fill:none;stroke:#444444;stroke-width:1px;stroke-linecap:butt;stroke-linejoin:miter;stroke-opacity:1"
       d="m 730,294 -6,0"
       inkscape:connector-curvature="0" />
    <path
       id="path112"
       style="fill:none;stroke:#ae6eee;stroke-width:1px;stroke-linecap:butt;stroke-linejoin:miter;stroke-opacity:1"
       d="m 724,294 -46,152 m 52,-150 -6,0 -46,-278 m 52,280 -5,0 -47,113 m 52,-111 -5,0 -47,-246 m 52,248 -4,0 -48,73 m 52,-71 -4,0 -48,-214 m 52,216 -3,0 -49,33 m 52,-31 -3,0"
       inkscape:connector-curvature="0" />
    <path
       id="path113"
       style="fill:none;stroke:#ad6eee;stroke-width:1px;stroke-linecap:butt;stroke-linejoin:miter;stroke-opacity:1"
       d="M 727,308 678,125 m 52,185 -2,0 -50,-6 m 52,8 -2,0"
       inkscape:connector-curvature="0" />
    <path
       id="path114"
       style="fill:none;stroke:#ae6eee;stroke-width:1px;stroke-linecap:butt;stroke-linejoin:miter;stroke-opacity:1"
       d="M 728,312 678,161 m 52,153 -1,0 -51,-117 m 52,119 -1,0 -51,-84"
       inkscape:connector-curvature="0" />
    <rect
       id="rect115"
       style="fill:#ffffff;fill-opacity:1;stroke-opacity:0"
       x="723"
       y="112"
       width="25"
       height="25" />
    <path
       id="path116"
       style="fill:none;stroke:#222222;stroke-width:1px;stroke-linecap:butt;stroke-linejoin:miter;stroke-opacity:1"
       d="m 741,124 -12,-12 0,24 12,-12 7,0 m -19,-11"
       inkscape:connector-curvature="0" />
    <path
       id="path117"
       style="fill:none;stroke:#444444;stroke-width:1px;stroke-linecap:butt;stroke-linejoin:miter;stroke-opacity:1"
       d="m 729,113 -6,0"
       inkscape:connector-curvature="0" />
    <path
       id="path118"
       style="fill:none;stroke:#ae6eee;stroke-width:1px;stroke-linecap:butt;stroke-linejoin:miter;stroke-opacity:1"
       d="m 723,113 -45,333 m 51,-331 -6,0 -45,-97 m 51,99 -5,0 -46,294 m 51,-292 -5,0 -46,-65 m 51,67 -4,0 -47,254 m 51,-252 -4,0 -47,-33 m 51,35 -3,0 -48,214 m 51,-212 -3,0"
       inkscape:connector-curvature="0" />
    <path
       id="path119"
       style="fill:none;stroke:#ad6eee;stroke-width:1px;stroke-linecap:butt;stroke-linejoin:miter;stroke-opacity:1"
       d="m 726,127 -48,-2 m 51,4 -2,0 -49,175 m 51,-173 -2,0"
       inkscape:connector-curvature="0" />
    <path
       id="path120"
       style="fill:none;stroke:#ae6eee;stroke-width:1px;stroke-linecap:butt;stroke-linejoin:miter;stroke-opacity:1"
       d="m 727,131 -49,30 m 51,-28 -1,0 -50,64 m 51,-62 -1,0 -50,97"
       inkscape:connector-curvature="0" />
    <rect
       id="rect121"
       style="fill:#ffffff;fill-opacity:1;stroke-opacity:0"
       x="724"
       y="181"
       width="25"
       height="25" />
    <path
       id="path122"
       style="fill:none;stroke:#222222;stroke-width:1px;stroke-linecap:butt;stroke-linejoin:miter;stroke-opacity:1"
       d="m 742,193 -12,-12 0,24 12,-12 7,0 m -19,-11"
       inkscape:connector-curvature="0" />
    <path
       id="path123"
       style="fill:none;stroke:#444444;stroke-width:1px;stroke-linecap:butt;stroke-linejoin:miter;stroke-opacity:1"
       d="m 730,182 -6,0"
       inkscape:connector-curvature="0" />
    <path
       id="path124"
       style="fill:none;stroke:#ae6eee;stroke-width:1px;stroke-linecap:butt;stroke-linejoin:miter;stroke-opacity:1"
       d="m 724,182 -46,264 m 52,-262 -6,0 -46,-166 m 52,168 -5,0 -47,225 m 52,-223 -5,0 -47,-134 m 52,136 -4,0 -48,185 m 52,-183 -4,0 -48,-102 m 52,104 -3,0 -49,145 m 52,-143 -3,0"
       inkscape:connector-curvature="0" />
    <path
       id="path125"
       style="fill:none;stroke:#ad6eee;stroke-width:1px;stroke-linecap:butt;stroke-linejoin:miter;stroke-opacity:1"
       d="m 727,196 -49,-71 m 52,73 -2,0 -50,106 m 52,-104 -2,0"
       inkscape:connector-curvature="0" />
    <path
       id="path126"
       style="fill:none;stroke:#ae6eee;stroke-width:1px;stroke-linecap:butt;stroke-linejoin:miter;stroke-opacity:1"
       d="m 728,200 -50,-39 m 52,41 -1,0 -51,-5 m 52,7 -1,0 -51,28"
       inkscape:connector-curvature="0" />
  </g>
</svg>
