<?xml version="1.0" encoding="UTF-8" standalone="no"?>
<!-- Exported by Framsticks (http://www.framsticks.com/) -->
<svg
   xmlns:svg="http://www.w3.org/2000/svg"
   xmlns="http://www.w3.org/2000/svg"
   id="svg2"
   height="979"
   width="1920"
   y="0.0000000"
   x="0.0000000"
   version="1.0">
  <defs
     id="defs3" />
  <g
     id="layer1">
<path id="path1" style="fill:none;stroke:#222222;stroke-width:1px;stroke-linecap:butt;stroke-linejoin:miter;stroke-opacity:1" d="M 112,947 L 93,928 L 93,965 L 112,947 L 122,947 M 219,947 "/><path id="path2" style="fill:none;stroke:#222222;stroke-width:1px;stroke-linecap:butt;stroke-linejoin:miter;stroke-opacity:1" d="M 219,947 L 200,928 L 200,965 L 219,947 L 229,947 "/><rect
       id="rect3"
       style="fill:#ffffff;fill-opacity:1;stroke-opacity:0"
       x="378"
       y="388"
       width="38"
       height="38" />
<path id="path4" style="fill:none;stroke:#222222;stroke-width:1px;stroke-linecap:butt;stroke-linejoin:miter;stroke-opacity:1" d="M 406,407 L 387,388 L 387,425 L 406,407 L 416,407 M 387,407 "/><path id="path5" style="fill:none;stroke:#444444;stroke-width:1px;stroke-linecap:butt;stroke-linejoin:miter;stroke-opacity:1" d="M 387,407 L 382,407 "/><path id="path6" style="fill:none;stroke:#ae6eee;stroke-width:1px;stroke-linecap:butt;stroke-linejoin:miter;stroke-opacity:1" d="M 382,407 L 52,435 M 481,403 "/><path id="path7" style="fill:none;stroke:#222222;stroke-width:1px;stroke-linecap:butt;stroke-linejoin:miter;stroke-opacity:1" d="M 481,403 L 462,384 L 462,421 L 481,403 L 491,403 M 462,396 "/><path id="path8" style="fill:none;stroke:#444444;stroke-width:1px;stroke-linecap:butt;stroke-linejoin:miter;stroke-opacity:1" d="M 462,396 L 456,396 "/><path id="path9" style="fill:none;stroke:#ae6eee;stroke-width:1px;stroke-linecap:butt;stroke-linejoin:miter;stroke-opacity:1" d="M 456,396 L 456,380 L 491,380 L 491,403 M 462,409 L 459,409 L 416,407 M 556,405 "/><path id="path10" style="fill:none;stroke:#222222;stroke-width:1px;stroke-linecap:butt;stroke-linejoin:miter;stroke-opacity:1" d="M 556,405 L 537,386 L 537,423 L 556,405 L 566,405 M 537,398 "/><path id="path11" style="fill:none;stroke:#444444;stroke-width:1px;stroke-linecap:butt;stroke-linejoin:miter;stroke-opacity:1" d="M 537,398 L 531,398 "/><path id="path12" style="fill:none;stroke:#ae6eee;stroke-width:1px;stroke-linecap:butt;stroke-linejoin:miter;stroke-opacity:1" d="M 531,398 L 531,382 L 566,382 L 566,405 M 537,411 L 534,411 L 491,403 M 632,406 "/><path id="path13" style="fill:none;stroke:#222222;stroke-width:1px;stroke-linecap:butt;stroke-linejoin:miter;stroke-opacity:1" d="M 632,406 L 613,387 L 613,424 L 632,406 L 642,406 M 613,399 "/><path id="path14" style="fill:none;stroke:#444444;stroke-width:1px;stroke-linecap:butt;stroke-linejoin:miter;stroke-opacity:1" d="M 613,399 L 607,399 "/><path id="path15" style="fill:none;stroke:#ae6eee;stroke-width:1px;stroke-linecap:butt;stroke-linejoin:miter;stroke-opacity:1" d="M 607,399 L 607,383 L 642,383 L 642,406 M 613,412 L 610,412 L 566,405 "/><rect
       id="rect16"
       style="fill:#ffffff;fill-opacity:1;stroke-opacity:0"
       x="671"
       y="385"
       width="38"
       height="38" />
<path id="path17" style="fill:none;stroke:#222222;stroke-width:1px;stroke-linecap:butt;stroke-linejoin:miter;stroke-opacity:1" d="M 699,404 L 680,385 L 680,422 L 699,404 L 709,404 M 680,404 "/><path id="path18" style="fill:none;stroke:#444444;stroke-width:1px;stroke-linecap:butt;stroke-linejoin:miter;stroke-opacity:1" d="M 680,404 L 675,404 "/><path id="path19" style="fill:none;stroke:#ae6eee;stroke-width:1px;stroke-linecap:butt;stroke-linejoin:miter;stroke-opacity:1" d="M 675,404 L 642,406 "/><rect
       id="rect20"
       style="fill:#ffffff;fill-opacity:1;stroke-opacity:0"
       x="14"
       y="416"
       width="38"
       height="38" />
<path id="path21" style="fill:none;stroke:#222222;stroke-width:1px;stroke-linecap:butt;stroke-linejoin:miter;stroke-opacity:1" d="M 42,435 L 23,416 L 23,453 L 42,435 L 52,435 "/><rect
       id="rect22"
       style="fill:#ffffff;fill-opacity:1;stroke-opacity:0"
       x="12"
       y="348"
       width="38"
       height="38" />
<path id="path23" style="fill:none;stroke:#222222;stroke-width:1px;stroke-linecap:butt;stroke-linejoin:miter;stroke-opacity:1" d="M 40,367 L 21,348 L 21,385 L 40,367 L 50,367 M 165,353 "/><path id="path24" style="fill:none;stroke:#222222;stroke-width:1px;stroke-linecap:butt;stroke-linejoin:miter;stroke-opacity:1" d="M 165,353 L 146,334 L 146,371 L 165,353 L 175,353 M 146,339 "/><path id="path25" style="fill:none;stroke:#444444;stroke-width:1px;stroke-linecap:butt;stroke-linejoin:miter;stroke-opacity:1" d="M 146,339 L 138,339 "/><path id="path26" style="fill:none;stroke:#ad6eee;stroke-width:1px;stroke-linecap:butt;stroke-linejoin:miter;stroke-opacity:1" d="M 138,339 L 50,367 M 146,344 L 139,344 "/><path id="path27" style="fill:none;stroke:#ae6eee;stroke-width:1px;stroke-linecap:butt;stroke-linejoin:miter;stroke-opacity:1" d="M 139,344 L 52,435 M 146,350 L 141,350 L 141,379 L 709,379 L 709,404 M 146,355 L 142,355 L 142,377 L 642,377 L 642,406 M 146,361 L 143,361 L 143,375 L 566,375 L 566,405 M 146,366 L 145,366 L 145,374 L 491,374 L 491,403 M 168,293 "/><path id="path28" style="fill:none;stroke:#222222;stroke-width:1px;stroke-linecap:butt;stroke-linejoin:miter;stroke-opacity:1" d="M 168,293 L 149,274 L 149,311 L 168,293 L 178,293 M 149,279 "/><path id="path29" style="fill:none;stroke:#444444;stroke-width:1px;stroke-linecap:butt;stroke-linejoin:miter;stroke-opacity:1" d="M 149,279 L 141,279 "/><path id="path30" style="fill:none;stroke:#ad6eee;stroke-width:1px;stroke-linecap:butt;stroke-linejoin:miter;stroke-opacity:1" d="M 141,279 L 50,367 M 149,284 L 142,284 "/><path id="path31" style="fill:none;stroke:#ae6eee;stroke-width:1px;stroke-linecap:butt;stroke-linejoin:miter;stroke-opacity:1" d="M 142,284 L 52,435 M 149,290 L 144,290 L 144,319 L 709,319 L 709,404 M 149,295 L 145,295 L 145,317 L 642,317 L 642,406 M 149,301 L 146,301 L 146,315 L 566,315 L 566,405 M 149,306 L 148,306 L 148,314 L 491,314 L 491,403 M 165,245 "/><path id="path32" style="fill:none;stroke:#222222;stroke-width:1px;stroke-linecap:butt;stroke-linejoin:miter;stroke-opacity:1" d="M 165,245 L 146,226 L 146,263 L 165,245 L 175,245 M 146,231 "/><path id="path33" style="fill:none;stroke:#444444;stroke-width:1px;stroke-linecap:butt;stroke-linejoin:miter;stroke-opacity:1" d="M 146,231 L 138,231 "/><path id="path34" style="fill:none;stroke:#ad6eee;stroke-width:1px;stroke-linecap:butt;stroke-linejoin:miter;stroke-opacity:1" d="M 138,231 L 50,367 M 146,236 L 139,236 "/><path id="path35" style="fill:none;stroke:#ae6eee;stroke-width:1px;stroke-linecap:butt;stroke-linejoin:miter;stroke-opacity:1" d="M 139,236 L 52,435 M 146,242 L 141,242 L 141,271 L 709,271 L 709,404 M 146,247 L 142,247 L 142,269 L 642,269 L 642,406 M 146,253 L 143,253 L 143,267 L 566,267 L 566,405 M 146,258 L 145,258 L 145,266 L 491,266 L 491,403 M 165,461 "/><path id="path36" style="fill:none;stroke:#222222;stroke-width:1px;stroke-linecap:butt;stroke-linejoin:miter;stroke-opacity:1" d="M 165,461 L 146,442 L 146,479 L 165,461 L 175,461 M 146,447 "/><path id="path37" style="fill:none;stroke:#444444;stroke-width:1px;stroke-linecap:butt;stroke-linejoin:miter;stroke-opacity:1" d="M 146,447 L 138,447 "/><path id="path38" style="fill:none;stroke:#ad6eee;stroke-width:1px;stroke-linecap:butt;stroke-linejoin:miter;stroke-opacity:1" d="M 138,447 L 50,367 M 146,452 L 139,452 "/><path id="path39" style="fill:none;stroke:#ae6eee;stroke-width:1px;stroke-linecap:butt;stroke-linejoin:miter;stroke-opacity:1" d="M 139,452 L 52,435 M 146,458 L 141,458 L 141,437 L 709,437 L 709,404 M 146,463 L 142,463 L 142,435 L 642,435 L 642,406 M 146,469 L 143,469 L 143,433 L 566,433 L 566,405 M 146,474 L 145,474 L 145,432 L 491,432 L 491,403 M 165,191 "/><path id="path40" style="fill:none;stroke:#222222;stroke-width:1px;stroke-linecap:butt;stroke-linejoin:miter;stroke-opacity:1" d="M 165,191 L 146,172 L 146,209 L 165,191 L 175,191 M 146,177 "/><path id="path41" style="fill:none;stroke:#444444;stroke-width:1px;stroke-linecap:butt;stroke-linejoin:miter;stroke-opacity:1" d="M 146,177 L 138,177 "/><path id="path42" style="fill:none;stroke:#ad6eee;stroke-width:1px;stroke-linecap:butt;stroke-linejoin:miter;stroke-opacity:1" d="M 138,177 L 50,367 M 146,182 L 139,182 "/><path id="path43" style="fill:none;stroke:#ae6eee;stroke-width:1px;stroke-linecap:butt;stroke-linejoin:miter;stroke-opacity:1" d="M 139,182 L 52,435 M 146,188 L 141,188 L 141,217 L 709,217 L 709,404 M 146,193 L 142,193 L 142,215 L 642,215 L 642,406 M 146,199 L 143,199 L 143,213 L 566,213 L 566,405 M 146,204 L 145,204 L 145,212 L 491,212 L 491,403 M 165,515 "/><path id="path44" style="fill:none;stroke:#222222;stroke-width:1px;stroke-linecap:butt;stroke-linejoin:miter;stroke-opacity:1" d="M 165,515 L 146,496 L 146,533 L 165,515 L 175,515 M 146,501 "/><path id="path45" style="fill:none;stroke:#444444;stroke-width:1px;stroke-linecap:butt;stroke-linejoin:miter;stroke-opacity:1" d="M 146,501 L 138,501 "/><path id="path46" style="fill:none;stroke:#ad6eee;stroke-width:1px;stroke-linecap:butt;stroke-linejoin:miter;stroke-opacity:1" d="M 138,501 L 50,367 M 146,506 L 139,506 "/><path id="path47" style="fill:none;stroke:#ae6eee;stroke-width:1px;stroke-linecap:butt;stroke-linejoin:miter;stroke-opacity:1" d="M 139,506 L 52,435 M 146,512 L 141,512 L 141,491 L 709,491 L 709,404 M 146,517 L 142,517 L 142,489 L 642,489 L 642,406 M 146,523 L 143,523 L 143,487 L 566,487 L 566,405 M 146,528 L 145,528 L 145,486 L 491,486 L 491,403 M 165,137 "/><path id="path48" style="fill:none;stroke:#222222;stroke-width:1px;stroke-linecap:butt;stroke-linejoin:miter;stroke-opacity:1" d="M 165,137 L 146,118 L 146,155 L 165,137 L 175,137 M 146,123 "/><path id="path49" style="fill:none;stroke:#444444;stroke-width:1px;stroke-linecap:butt;stroke-linejoin:miter;stroke-opacity:1" d="M 146,123 L 138,123 "/><path id="path50" style="fill:none;stroke:#ad6eee;stroke-width:1px;stroke-linecap:butt;stroke-linejoin:miter;stroke-opacity:1" d="M 138,123 L 50,367 M 146,128 L 139,128 "/><path id="path51" style="fill:none;stroke:#ae6eee;stroke-width:1px;stroke-linecap:butt;stroke-linejoin:miter;stroke-opacity:1" d="M 139,128 L 52,435 M 146,134 L 141,134 L 141,163 L 709,163 L 709,404 M 146,139 L 142,139 L 142,161 L 642,161 L 642,406 M 146,145 L 143,145 L 143,159 L 566,159 L 566,405 M 146,150 L 145,150 L 145,158 L 491,158 L 491,403 M 165,569 "/><path id="path52" style="fill:none;stroke:#222222;stroke-width:1px;stroke-linecap:butt;stroke-linejoin:miter;stroke-opacity:1" d="M 165,569 L 146,550 L 146,587 L 165,569 L 175,569 M 146,555 "/><path id="path53" style="fill:none;stroke:#444444;stroke-width:1px;stroke-linecap:butt;stroke-linejoin:miter;stroke-opacity:1" d="M 146,555 L 138,555 "/><path id="path54" style="fill:none;stroke:#ad6eee;stroke-width:1px;stroke-linecap:butt;stroke-linejoin:miter;stroke-opacity:1" d="M 138,555 L 50,367 M 146,560 L 139,560 "/><path id="path55" style="fill:none;stroke:#ae6eee;stroke-width:1px;stroke-linecap:butt;stroke-linejoin:miter;stroke-opacity:1" d="M 139,560 L 52,435 M 146,566 L 141,566 L 141,545 L 709,545 L 709,404 M 146,571 L 142,571 L 142,543 L 642,543 L 642,406 M 146,577 L 143,577 L 143,541 L 566,541 L 566,405 M 146,582 L 145,582 L 145,540 L 491,540 L 491,403 M 165,83 "/><path id="path56" style="fill:none;stroke:#222222;stroke-width:1px;stroke-linecap:butt;stroke-linejoin:miter;stroke-opacity:1" d="M 165,83 L 146,64 L 146,101 L 165,83 L 175,83 M 146,69 "/><path id="path57" style="fill:none;stroke:#444444;stroke-width:1px;stroke-linecap:butt;stroke-linejoin:miter;stroke-opacity:1" d="M 146,69 L 138,69 "/><path id="path58" style="fill:none;stroke:#ad6eee;stroke-width:1px;stroke-linecap:butt;stroke-linejoin:miter;stroke-opacity:1" d="M 138,69 L 50,367 M 146,74 L 139,74 "/><path id="path59" style="fill:none;stroke:#ae6eee;stroke-width:1px;stroke-linecap:butt;stroke-linejoin:miter;stroke-opacity:1" d="M 139,74 L 52,435 M 146,80 L 141,80 L 141,109 L 709,109 L 709,404 M 146,85 L 142,85 L 142,107 L 642,107 L 642,406 M 146,91 L 143,91 L 143,105 L 566,105 L 566,405 M 146,96 L 145,96 L 145,104 L 491,104 L 491,403 M 165,623 "/><path id="path60" style="fill:none;stroke:#222222;stroke-width:1px;stroke-linecap:butt;stroke-linejoin:miter;stroke-opacity:1" d="M 165,623 L 146,604 L 146,641 L 165,623 L 175,623 M 146,609 "/><path id="path61" style="fill:none;stroke:#444444;stroke-width:1px;stroke-linecap:butt;stroke-linejoin:miter;stroke-opacity:1" d="M 146,609 L 138,609 "/><path id="path62" style="fill:none;stroke:#ad6eee;stroke-width:1px;stroke-linecap:butt;stroke-linejoin:miter;stroke-opacity:1" d="M 138,609 L 50,367 M 146,614 L 139,614 "/><path id="path63" style="fill:none;stroke:#ae6eee;stroke-width:1px;stroke-linecap:butt;stroke-linejoin:miter;stroke-opacity:1" d="M 139,614 L 52,435 M 146,620 L 141,620 L 141,599 L 709,599 L 709,404 M 146,625 L 142,625 L 142,597 L 642,597 L 642,406 M 146,631 L 143,631 L 143,595 L 566,595 L 566,405 M 146,636 L 145,636 L 145,594 L 491,594 L 491,403 M 165,29 "/><path id="path64" style="fill:none;stroke:#222222;stroke-width:1px;stroke-linecap:butt;stroke-linejoin:miter;stroke-opacity:1" d="M 165,29 L 146,10 L 146,47 L 165,29 L 175,29 M 146,15 "/><path id="path65" style="fill:none;stroke:#444444;stroke-width:1px;stroke-linecap:butt;stroke-linejoin:miter;stroke-opacity:1" d="M 146,15 L 138,15 "/><path id="path66" style="fill:none;stroke:#ad6eee;stroke-width:1px;stroke-linecap:butt;stroke-linejoin:miter;stroke-opacity:1" d="M 138,15 L 50,367 M 146,20 L 139,20 "/><path id="path67" style="fill:none;stroke:#ae6eee;stroke-width:1px;stroke-linecap:butt;stroke-linejoin:miter;stroke-opacity:1" d="M 139,20 L 52,435 M 146,26 L 141,26 L 141,55 L 709,55 L 709,404 M 146,31 L 142,31 L 142,53 L 642,53 L 642,406 M 146,37 L 143,37 L 143,51 L 566,51 L 566,405 M 146,42 L 145,42 L 145,50 L 491,50 L 491,403 M 165,677 "/><path id="path68" style="fill:none;stroke:#222222;stroke-width:1px;stroke-linecap:butt;stroke-linejoin:miter;stroke-opacity:1" d="M 165,677 L 146,658 L 146,695 L 165,677 L 175,677 M 146,663 "/><path id="path69" style="fill:none;stroke:#444444;stroke-width:1px;stroke-linecap:butt;stroke-linejoin:miter;stroke-opacity:1" d="M 146,663 L 138,663 "/><path id="path70" style="fill:none;stroke:#ad6eee;stroke-width:1px;stroke-linecap:butt;stroke-linejoin:miter;stroke-opacity:1" d="M 138,663 L 50,367 M 146,668 L 139,668 "/><path id="path71" style="fill:none;stroke:#ae6eee;stroke-width:1px;stroke-linecap:butt;stroke-linejoin:miter;stroke-opacity:1" d="M 139,668 L 52,435 M 146,674 L 141,674 L 141,653 L 709,653 L 709,404 M 146,679 L 142,679 L 142,651 L 642,651 L 642,406 M 146,685 L 143,685 L 143,649 L 566,649 L 566,405 M 146,690 L 145,690 L 145,648 L 491,648 L 491,403 M 397,292 "/><path id="path72" style="fill:none;stroke:#222222;stroke-width:1px;stroke-linecap:butt;stroke-linejoin:miter;stroke-opacity:1" d="M 397,292 L 378,273 L 378,310 L 397,292 L 407,292 M 378,275 "/><path id="path73" style="fill:none;stroke:#444444;stroke-width:1px;stroke-linecap:butt;stroke-linejoin:miter;stroke-opacity:1" d="M 378,275 L 369,275 "/><path id="path74" style="fill:none;stroke:#ae6eee;stroke-width:1px;stroke-linecap:butt;stroke-linejoin:miter;stroke-opacity:1" d="M 369,275 L 175,677 M 378,278 L 370,278 L 175,29 M 378,281 L 371,281 L 175,623 M 378,284 L 371,284 L 175,83 M 378,287 L 372,287 L 175,569 M 378,290 L 373,290 L 175,137 M 378,293 L 374,293 L 175,515 M 378,296 L 374,296 L 175,191 M 378,299 L 375,299 L 175,461 M 378,302 L 376,302 L 175,245 M 378,305 L 377,305 L 178,293 M 378,308 L 377,308 L 175,353 "/><rect
       id="rect75"
       style="fill:#ffffff;fill-opacity:1;stroke-opacity:0"
       x="370"
       y="329"
       width="38"
       height="38" />
<path id="path76" style="fill:none;stroke:#222222;stroke-width:1px;stroke-linecap:butt;stroke-linejoin:miter;stroke-opacity:1" d="M 398,348 L 379,329 L 379,366 L 398,348 L 408,348 M 379,331 "/><path id="path77" style="fill:none;stroke:#444444;stroke-width:1px;stroke-linecap:butt;stroke-linejoin:miter;stroke-opacity:1" d="M 379,331 L 370,331 "/><path id="path78" style="fill:none;stroke:#ae6eee;stroke-width:1px;stroke-linecap:butt;stroke-linejoin:miter;stroke-opacity:1" d="M 370,331 L 175,677 M 379,334 L 371,334 L 175,29 M 379,337 L 372,337 L 175,623 M 379,340 L 372,340 L 175,83 M 379,343 L 373,343 L 175,569 M 379,346 L 374,346 L 175,137 M 379,349 L 375,349 L 175,515 M 379,352 L 375,352 L 175,191 M 379,355 L 376,355 L 175,461 M 379,358 L 377,358 L 175,245 M 379,361 L 378,361 L 178,293 M 379,364 L 378,364 L 175,353 "/><rect
       id="rect79"
       style="fill:#ffffff;fill-opacity:1;stroke-opacity:0"
       x="369"
       y="166"
       width="38"
       height="38" />
<path id="path80" style="fill:none;stroke:#222222;stroke-width:1px;stroke-linecap:butt;stroke-linejoin:miter;stroke-opacity:1" d="M 397,185 L 378,166 L 378,203 L 397,185 L 407,185 M 378,168 "/><path id="path81" style="fill:none;stroke:#444444;stroke-width:1px;stroke-linecap:butt;stroke-linejoin:miter;stroke-opacity:1" d="M 378,168 L 369,168 "/><path id="path82" style="fill:none;stroke:#ae6eee;stroke-width:1px;stroke-linecap:butt;stroke-linejoin:miter;stroke-opacity:1" d="M 369,168 L 175,677 M 378,171 L 370,171 L 175,29 M 378,174 L 371,174 L 175,623 M 378,177 L 371,177 L 175,83 M 378,180 L 372,180 L 175,569 M 378,183 L 373,183 L 175,137 M 378,186 L 374,186 L 175,515 M 378,189 L 374,189 L 175,191 M 378,192 L 375,192 L 175,461 M 378,195 L 376,195 L 175,245 M 378,198 L 377,198 L 178,293 M 378,201 L 377,201 L 175,353 "/><rect
       id="rect83"
       style="fill:#ffffff;fill-opacity:1;stroke-opacity:0"
       x="372"
       y="446"
       width="38"
       height="38" />
<path id="path84" style="fill:none;stroke:#222222;stroke-width:1px;stroke-linecap:butt;stroke-linejoin:miter;stroke-opacity:1" d="M 400,465 L 381,446 L 381,483 L 400,465 L 410,465 M 381,448 "/><path id="path85" style="fill:none;stroke:#444444;stroke-width:1px;stroke-linecap:butt;stroke-linejoin:miter;stroke-opacity:1" d="M 381,448 L 372,448 "/><path id="path86" style="fill:none;stroke:#ae6eee;stroke-width:1px;stroke-linecap:butt;stroke-linejoin:miter;stroke-opacity:1" d="M 372,448 L 175,677 M 381,451 L 373,451 L 175,29 M 381,454 L 374,454 L 175,623 M 381,457 L 374,457 L 175,83 M 381,460 L 375,460 L 175,569 M 381,463 L 376,463 L 175,137 M 381,466 L 377,466 L 175,515 M 381,469 L 377,469 L 175,191 M 381,472 L 378,472 L 175,461 M 381,475 L 379,475 L 175,245 M 381,478 L 380,478 L 178,293 M 381,481 L 380,481 L 175,353 "/><rect
       id="rect87"
       style="fill:#ffffff;fill-opacity:1;stroke-opacity:0"
       x="374"
       y="554"
       width="38"
       height="38" />
<path id="path88" style="fill:none;stroke:#222222;stroke-width:1px;stroke-linecap:butt;stroke-linejoin:miter;stroke-opacity:1" d="M 402,573 L 383,554 L 383,591 L 402,573 L 412,573 M 383,556 "/><path id="path89" style="fill:none;stroke:#444444;stroke-width:1px;stroke-linecap:butt;stroke-linejoin:miter;stroke-opacity:1" d="M 383,556 L 374,556 "/><path id="path90" style="fill:none;stroke:#ae6eee;stroke-width:1px;stroke-linecap:butt;stroke-linejoin:miter;stroke-opacity:1" d="M 374,556 L 175,677 M 383,559 L 375,559 L 175,29 M 383,562 L 376,562 L 175,623 M 383,565 L 376,565 L 175,83 M 383,568 L 377,568 L 175,569 M 383,571 L 378,571 L 175,137 M 383,574 L 379,574 L 175,515 M 383,577 L 379,577 L 175,191 M 383,580 L 380,580 L 175,461 M 383,583 L 381,583 L 175,245 M 383,586 L 382,586 L 178,293 M 383,589 L 382,589 L 175,353 M 391,131 "/><path id="path91" style="fill:none;stroke:#222222;stroke-width:1px;stroke-linecap:butt;stroke-linejoin:miter;stroke-opacity:1" d="M 391,131 L 372,112 L 372,149 L 391,131 L 401,131 M 372,114 "/><path id="path92" style="fill:none;stroke:#444444;stroke-width:1px;stroke-linecap:butt;stroke-linejoin:miter;stroke-opacity:1" d="M 372,114 L 363,114 "/><path id="path93" style="fill:none;stroke:#ae6eee;stroke-width:1px;stroke-linecap:butt;stroke-linejoin:miter;stroke-opacity:1" d="M 363,114 L 175,677 M 372,117 L 364,117 L 175,29 M 372,120 L 365,120 L 175,623 M 372,123 L 365,123 L 175,83 M 372,126 L 366,126 L 175,569 M 372,129 L 367,129 L 175,137 M 372,132 L 368,132 L 175,515 M 372,135 L 368,135 L 175,191 M 372,138 L 369,138 L 175,461 M 372,141 L 370,141 L 175,245 M 372,144 L 371,144 L 178,293 M 372,147 L 371,147 L 175,353 "/><rect
       id="rect94"
       style="fill:#ffffff;fill-opacity:1;stroke-opacity:0"
       x="368"
       y="501"
       width="38"
       height="38" />
<path id="path95" style="fill:none;stroke:#222222;stroke-width:1px;stroke-linecap:butt;stroke-linejoin:miter;stroke-opacity:1" d="M 396,520 L 377,501 L 377,538 L 396,520 L 406,520 M 377,503 "/><path id="path96" style="fill:none;stroke:#444444;stroke-width:1px;stroke-linecap:butt;stroke-linejoin:miter;stroke-opacity:1" d="M 377,503 L 368,503 "/><path id="path97" style="fill:none;stroke:#ae6eee;stroke-width:1px;stroke-linecap:butt;stroke-linejoin:miter;stroke-opacity:1" d="M 368,503 L 175,677 M 377,506 L 369,506 L 175,29 M 377,509 L 370,509 L 175,623 M 377,512 L 370,512 L 175,83 M 377,515 L 371,515 L 175,569 M 377,518 L 372,518 L 175,137 M 377,521 L 373,521 L 175,515 M 377,524 L 373,524 L 175,191 M 377,527 L 374,527 L 175,461 M 377,530 L 375,530 L 175,245 M 377,533 L 376,533 L 178,293 M 377,536 L 376,536 L 175,353 M 399,242 "/><path id="path98" style="fill:none;stroke:#222222;stroke-width:1px;stroke-linecap:butt;stroke-linejoin:miter;stroke-opacity:1" d="M 399,242 L 380,223 L 380,260 L 399,242 L 409,242 M 380,225 "/><path id="path99" style="fill:none;stroke:#444444;stroke-width:1px;stroke-linecap:butt;stroke-linejoin:miter;stroke-opacity:1" d="M 380,225 L 371,225 "/><path id="path100" style="fill:none;stroke:#ae6eee;stroke-width:1px;stroke-linecap:butt;stroke-linejoin:miter;stroke-opacity:1" d="M 371,225 L 175,677 M 380,228 L 372,228 L 175,29 M 380,231 L 373,231 L 175,623 M 380,234 L 373,234 L 175,83 M 380,237 L 374,237 L 175,569 M 380,240 L 375,240 L 175,137 M 380,243 L 376,243 L 175,515 M 380,246 L 376,246 L 175,191 M 380,249 L 377,249 L 175,461 M 380,252 L 378,252 L 175,245 M 380,255 L 379,255 L 178,293 M 380,258 L 379,258 L 175,353 "/></g></svg>
