<?xml version="1.0" encoding="UTF-8" standalone="no"?>
<!-- Exported by Framsticks (http://www.framsticks.com/) -->
<svg
   xmlns:svg="http://www.w3.org/2000/svg"
   xmlns="http://www.w3.org/2000/svg"
   id="svg2"
   height="418"
   width="887"
   y="0.0000000"
   x="0.0000000"
   version="1.0">
  <defs
     id="defs3" />
  <g
     id="layer1">
<rect
       id="rect1"
       style="fill:#ffffff;fill-opacity:1;stroke-opacity:0"
       x="14"
       y="341"
       width="23"
       height="23" />
<path id="path2" style="fill:none;stroke:#222222;stroke-width:1px;stroke-linecap:butt;stroke-linejoin:miter;stroke-opacity:1" d="M 31,352 L 19,341 L 19,363 L 31,352 L 37,352 "/><rect
       id="rect3"
       style="fill:#ffffff;fill-opacity:1;stroke-opacity:0"
       x="8"
       y="45"
       width="23"
       height="23" />
<path id="path4" style="fill:none;stroke:#222222;stroke-width:1px;stroke-linecap:butt;stroke-linejoin:miter;stroke-opacity:1" d="M 25,56 L 13,45 L 13,67 L 25,56 L 31,56 "/><rect
       id="rect5"
       style="fill:#ffffff;fill-opacity:1;stroke-opacity:0"
       x="16"
       y="278"
       width="23"
       height="23" />
<path id="path6" style="fill:none;stroke:#222222;stroke-width:1px;stroke-linecap:butt;stroke-linejoin:miter;stroke-opacity:1" d="M 33,289 L 21,278 L 21,300 L 33,289 L 39,289 M 21,122 "/><path id="path7" style="fill:none;stroke:#222222;stroke-width:1px;stroke-linecap:butt;stroke-linejoin:miter;stroke-opacity:1" d="M 21,122 L 9,111 L 9,133 L 21,122 L 27,122 "/><rect
       id="rect8"
       style="fill:#ffffff;fill-opacity:1;stroke-opacity:0"
       x="15"
       y="228"
       width="23"
       height="23" />
<path id="path9" style="fill:none;stroke:#222222;stroke-width:1px;stroke-linecap:butt;stroke-linejoin:miter;stroke-opacity:1" d="M 32,239 L 20,228 L 20,250 L 32,239 L 38,239 M 27,186 "/><path id="path10" style="fill:none;stroke:#222222;stroke-width:1px;stroke-linecap:butt;stroke-linejoin:miter;stroke-opacity:1" d="M 27,186 L 15,175 L 15,197 L 27,186 L 33,186 M 226,234 "/><path id="path11" style="fill:none;stroke:#222222;stroke-width:1px;stroke-linecap:butt;stroke-linejoin:miter;stroke-opacity:1" d="M 226,234 L 214,223 L 214,245 L 226,234 L 232,234 M 214,226 "/><path id="path12" style="fill:none;stroke:#444444;stroke-width:1px;stroke-linecap:butt;stroke-linejoin:miter;stroke-opacity:1" d="M 214,226 L 209,226 "/><path id="path13" style="fill:none;stroke:#ae6eee;stroke-width:1px;stroke-linecap:butt;stroke-linejoin:miter;stroke-opacity:1" d="M 209,226 L 33,186 M 214,229 L 210,229 L 38,239 M 214,232 L 211,232 L 27,122 M 214,236 L 212,236 L 39,289 M 214,239 L 213,239 L 31,56 M 214,242 L 213,242 L 37,352 M 226,201 "/><path id="path14" style="fill:none;stroke:#222222;stroke-width:1px;stroke-linecap:butt;stroke-linejoin:miter;stroke-opacity:1" d="M 226,201 L 214,190 L 214,212 L 226,201 L 232,201 M 214,193 "/><path id="path15" style="fill:none;stroke:#444444;stroke-width:1px;stroke-linecap:butt;stroke-linejoin:miter;stroke-opacity:1" d="M 214,193 L 209,193 "/><path id="path16" style="fill:none;stroke:#ae6eee;stroke-width:1px;stroke-linecap:butt;stroke-linejoin:miter;stroke-opacity:1" d="M 209,193 L 33,186 M 214,196 L 210,196 L 38,239 M 214,199 L 211,199 L 27,122 M 214,203 L 212,203 L 39,289 M 214,206 L 213,206 L 31,56 M 214,209 L 213,209 L 37,352 M 226,267 "/><path id="path17" style="fill:none;stroke:#222222;stroke-width:1px;stroke-linecap:butt;stroke-linejoin:miter;stroke-opacity:1" d="M 226,267 L 214,256 L 214,278 L 226,267 L 232,267 M 214,259 "/><path id="path18" style="fill:none;stroke:#444444;stroke-width:1px;stroke-linecap:butt;stroke-linejoin:miter;stroke-opacity:1" d="M 214,259 L 209,259 "/><path id="path19" style="fill:none;stroke:#ae6eee;stroke-width:1px;stroke-linecap:butt;stroke-linejoin:miter;stroke-opacity:1" d="M 209,259 L 33,186 M 214,262 L 210,262 L 38,239 M 214,265 L 211,265 L 27,122 M 214,269 L 212,269 L 39,289 M 214,272 L 213,272 L 31,56 M 214,275 L 213,275 L 37,352 M 226,168 "/><path id="path20" style="fill:none;stroke:#222222;stroke-width:1px;stroke-linecap:butt;stroke-linejoin:miter;stroke-opacity:1" d="M 226,168 L 214,157 L 214,179 L 226,168 L 232,168 M 214,160 "/><path id="path21" style="fill:none;stroke:#444444;stroke-width:1px;stroke-linecap:butt;stroke-linejoin:miter;stroke-opacity:1" d="M 214,160 L 209,160 "/><path id="path22" style="fill:none;stroke:#ae6eee;stroke-width:1px;stroke-linecap:butt;stroke-linejoin:miter;stroke-opacity:1" d="M 209,160 L 33,186 M 214,163 L 210,163 L 38,239 M 214,166 L 211,166 L 27,122 M 214,170 L 212,170 L 39,289 M 214,173 L 213,173 L 31,56 M 214,176 L 213,176 L 37,352 M 226,300 "/><path id="path23" style="fill:none;stroke:#222222;stroke-width:1px;stroke-linecap:butt;stroke-linejoin:miter;stroke-opacity:1" d="M 226,300 L 214,289 L 214,311 L 226,300 L 232,300 M 214,292 "/><path id="path24" style="fill:none;stroke:#444444;stroke-width:1px;stroke-linecap:butt;stroke-linejoin:miter;stroke-opacity:1" d="M 214,292 L 209,292 "/><path id="path25" style="fill:none;stroke:#ae6eee;stroke-width:1px;stroke-linecap:butt;stroke-linejoin:miter;stroke-opacity:1" d="M 209,292 L 33,186 M 214,295 L 210,295 L 38,239 M 214,298 L 211,298 L 27,122 M 214,302 L 212,302 L 39,289 M 214,305 L 213,305 L 31,56 M 214,308 L 213,308 L 37,352 M 226,135 "/><path id="path26" style="fill:none;stroke:#222222;stroke-width:1px;stroke-linecap:butt;stroke-linejoin:miter;stroke-opacity:1" d="M 226,135 L 214,124 L 214,146 L 226,135 L 232,135 M 214,127 "/><path id="path27" style="fill:none;stroke:#444444;stroke-width:1px;stroke-linecap:butt;stroke-linejoin:miter;stroke-opacity:1" d="M 214,127 L 209,127 "/><path id="path28" style="fill:none;stroke:#ae6eee;stroke-width:1px;stroke-linecap:butt;stroke-linejoin:miter;stroke-opacity:1" d="M 209,127 L 33,186 M 214,130 L 210,130 L 38,239 M 214,133 L 211,133 L 27,122 M 214,137 L 212,137 L 39,289 M 214,140 L 213,140 L 31,56 M 214,143 L 213,143 L 37,352 M 226,333 "/><path id="path29" style="fill:none;stroke:#222222;stroke-width:1px;stroke-linecap:butt;stroke-linejoin:miter;stroke-opacity:1" d="M 226,333 L 214,322 L 214,344 L 226,333 L 232,333 M 214,325 "/><path id="path30" style="fill:none;stroke:#444444;stroke-width:1px;stroke-linecap:butt;stroke-linejoin:miter;stroke-opacity:1" d="M 214,325 L 209,325 "/><path id="path31" style="fill:none;stroke:#ae6eee;stroke-width:1px;stroke-linecap:butt;stroke-linejoin:miter;stroke-opacity:1" d="M 209,325 L 33,186 M 214,328 L 210,328 L 38,239 M 214,331 L 211,331 L 27,122 M 214,335 L 212,335 L 39,289 M 214,338 L 213,338 L 31,56 M 214,341 L 213,341 L 37,352 M 226,102 "/><path id="path32" style="fill:none;stroke:#222222;stroke-width:1px;stroke-linecap:butt;stroke-linejoin:miter;stroke-opacity:1" d="M 226,102 L 214,91 L 214,113 L 226,102 L 232,102 M 214,94 "/><path id="path33" style="fill:none;stroke:#444444;stroke-width:1px;stroke-linecap:butt;stroke-linejoin:miter;stroke-opacity:1" d="M 214,94 L 209,94 "/><path id="path34" style="fill:none;stroke:#ae6eee;stroke-width:1px;stroke-linecap:butt;stroke-linejoin:miter;stroke-opacity:1" d="M 209,94 L 33,186 M 214,97 L 210,97 L 38,239 M 214,100 L 211,100 L 27,122 M 214,104 L 212,104 L 39,289 M 214,107 L 213,107 L 31,56 M 214,110 L 213,110 L 37,352 M 226,365 "/><path id="path35" style="fill:none;stroke:#222222;stroke-width:1px;stroke-linecap:butt;stroke-linejoin:miter;stroke-opacity:1" d="M 226,365 L 214,354 L 214,376 L 226,365 L 232,365 M 214,357 "/><path id="path36" style="fill:none;stroke:#444444;stroke-width:1px;stroke-linecap:butt;stroke-linejoin:miter;stroke-opacity:1" d="M 214,357 L 209,357 "/><path id="path37" style="fill:none;stroke:#ae6eee;stroke-width:1px;stroke-linecap:butt;stroke-linejoin:miter;stroke-opacity:1" d="M 209,357 L 33,186 M 214,360 L 210,360 L 38,239 M 214,363 L 211,363 L 27,122 M 214,367 L 212,367 L 39,289 M 214,370 L 213,370 L 31,56 M 214,373 L 213,373 L 37,352 M 226,69 "/><path id="path38" style="fill:none;stroke:#222222;stroke-width:1px;stroke-linecap:butt;stroke-linejoin:miter;stroke-opacity:1" d="M 226,69 L 214,58 L 214,80 L 226,69 L 232,69 M 214,61 "/><path id="path39" style="fill:none;stroke:#444444;stroke-width:1px;stroke-linecap:butt;stroke-linejoin:miter;stroke-opacity:1" d="M 214,61 L 209,61 "/><path id="path40" style="fill:none;stroke:#ae6eee;stroke-width:1px;stroke-linecap:butt;stroke-linejoin:miter;stroke-opacity:1" d="M 209,61 L 33,186 M 214,64 L 210,64 L 38,239 M 214,67 L 211,67 L 27,122 M 214,71 L 212,71 L 39,289 M 214,74 L 213,74 L 31,56 M 214,77 L 213,77 L 37,352 M 226,398 "/><path id="path41" style="fill:none;stroke:#222222;stroke-width:1px;stroke-linecap:butt;stroke-linejoin:miter;stroke-opacity:1" d="M 226,398 L 214,387 L 214,409 L 226,398 L 232,398 M 214,390 "/><path id="path42" style="fill:none;stroke:#444444;stroke-width:1px;stroke-linecap:butt;stroke-linejoin:miter;stroke-opacity:1" d="M 214,390 L 209,390 "/><path id="path43" style="fill:none;stroke:#ae6eee;stroke-width:1px;stroke-linecap:butt;stroke-linejoin:miter;stroke-opacity:1" d="M 209,390 L 33,186 M 214,393 L 210,393 L 38,239 M 214,396 L 211,396 L 27,122 M 214,400 L 212,400 L 39,289 M 214,403 L 213,403 L 31,56 M 214,406 L 213,406 L 37,352 M 226,36 "/><path id="path44" style="fill:none;stroke:#222222;stroke-width:1px;stroke-linecap:butt;stroke-linejoin:miter;stroke-opacity:1" d="M 226,36 L 214,25 L 214,47 L 226,36 L 232,36 M 214,28 "/><path id="path45" style="fill:none;stroke:#444444;stroke-width:1px;stroke-linecap:butt;stroke-linejoin:miter;stroke-opacity:1" d="M 214,28 L 209,28 "/><path id="path46" style="fill:none;stroke:#ae6eee;stroke-width:1px;stroke-linecap:butt;stroke-linejoin:miter;stroke-opacity:1" d="M 209,28 L 33,186 M 214,31 L 210,31 L 38,239 M 214,34 L 211,34 L 27,122 M 214,38 L 212,38 L 39,289 M 214,41 L 213,41 L 31,56 M 214,44 L 213,44 L 37,352 "/><rect
       id="rect47"
       style="fill:#ffffff;fill-opacity:1;stroke-opacity:0"
       x="466"
       y="213"
       width="23"
       height="23" />
<path id="path48" style="fill:none;stroke:#222222;stroke-width:1px;stroke-linecap:butt;stroke-linejoin:miter;stroke-opacity:1" d="M 483,224 L 471,213 L 471,235 L 483,224 L 489,224 M 471,214 "/><path id="path49" style="fill:none;stroke:#444444;stroke-width:1px;stroke-linecap:butt;stroke-linejoin:miter;stroke-opacity:1" d="M 471,214 L 466,214 "/><path id="path50" style="fill:none;stroke:#ae6eee;stroke-width:1px;stroke-linecap:butt;stroke-linejoin:miter;stroke-opacity:1" d="M 466,214 L 232,36 M 471,216 L 466,216 L 232,398 M 471,218 L 467,218 L 232,69 M 471,220 L 467,220 L 232,365 M 471,221 L 468,221 L 232,102 M 471,223 L 468,223 L 232,333 M 471,225 L 469,225 L 232,135 M 471,227 L 469,227 L 232,300 M 471,228 L 469,228 L 232,168 M 471,230 L 470,230 L 232,267 M 471,232 L 470,232 L 232,201 M 471,234 L 471,234 "/><path id="path51" style="fill:none;stroke:#ad6eee;stroke-width:1px;stroke-linecap:butt;stroke-linejoin:miter;stroke-opacity:1" d="M 471,234 L 232,234 "/><rect
       id="rect52"
       style="fill:#ffffff;fill-opacity:1;stroke-opacity:0"
       x="459"
       y="137"
       width="23"
       height="23" />
<path id="path53" style="fill:none;stroke:#222222;stroke-width:1px;stroke-linecap:butt;stroke-linejoin:miter;stroke-opacity:1" d="M 476,148 L 464,137 L 464,159 L 476,148 L 482,148 M 464,138 "/><path id="path54" style="fill:none;stroke:#444444;stroke-width:1px;stroke-linecap:butt;stroke-linejoin:miter;stroke-opacity:1" d="M 464,138 L 459,138 "/><path id="path55" style="fill:none;stroke:#ae6eee;stroke-width:1px;stroke-linecap:butt;stroke-linejoin:miter;stroke-opacity:1" d="M 459,138 L 232,36 M 464,140 L 459,140 L 232,398 M 464,142 L 460,142 L 232,69 M 464,144 L 460,144 L 232,365 M 464,145 L 461,145 L 232,102 M 464,147 L 461,147 L 232,333 M 464,149 L 462,149 L 232,135 M 464,151 L 462,151 L 232,300 M 464,152 L 462,152 L 232,168 M 464,154 L 463,154 L 232,267 M 464,156 L 463,156 L 232,201 M 464,158 L 464,158 "/><path id="path56" style="fill:none;stroke:#ad6eee;stroke-width:1px;stroke-linecap:butt;stroke-linejoin:miter;stroke-opacity:1" d="M 464,158 L 232,234 M 484,302 "/><path id="path57" style="fill:none;stroke:#222222;stroke-width:1px;stroke-linecap:butt;stroke-linejoin:miter;stroke-opacity:1" d="M 484,302 L 472,291 L 472,313 L 484,302 L 490,302 M 472,292 "/><path id="path58" style="fill:none;stroke:#444444;stroke-width:1px;stroke-linecap:butt;stroke-linejoin:miter;stroke-opacity:1" d="M 472,292 L 467,292 "/><path id="path59" style="fill:none;stroke:#ae6eee;stroke-width:1px;stroke-linecap:butt;stroke-linejoin:miter;stroke-opacity:1" d="M 467,292 L 232,36 M 472,294 L 467,294 L 232,398 M 472,296 L 468,296 L 232,69 M 472,298 L 468,298 L 232,365 M 472,299 L 469,299 L 232,102 M 472,301 L 469,301 L 232,333 M 472,303 L 470,303 L 232,135 M 472,305 L 470,305 L 232,300 M 472,306 L 470,306 L 232,168 M 472,308 L 471,308 L 232,267 M 472,310 L 471,310 L 232,201 M 472,312 L 472,312 "/><path id="path60" style="fill:none;stroke:#ad6eee;stroke-width:1px;stroke-linecap:butt;stroke-linejoin:miter;stroke-opacity:1" d="M 472,312 L 232,234 M 476,72 "/><path id="path61" style="fill:none;stroke:#222222;stroke-width:1px;stroke-linecap:butt;stroke-linejoin:miter;stroke-opacity:1" d="M 476,72 L 464,61 L 464,83 L 476,72 L 482,72 M 464,62 "/><path id="path62" style="fill:none;stroke:#444444;stroke-width:1px;stroke-linecap:butt;stroke-linejoin:miter;stroke-opacity:1" d="M 464,62 L 459,62 "/><path id="path63" style="fill:none;stroke:#ae6eee;stroke-width:1px;stroke-linecap:butt;stroke-linejoin:miter;stroke-opacity:1" d="M 459,62 L 232,36 M 464,64 L 459,64 L 232,398 M 464,66 L 460,66 L 232,69 M 464,68 L 460,68 L 232,365 M 464,69 L 461,69 L 232,102 M 464,71 L 461,71 L 232,333 M 464,73 L 462,73 L 232,135 M 464,75 L 462,75 L 232,300 M 464,76 L 462,76 L 232,168 M 464,78 L 463,78 L 232,267 M 464,80 L 463,80 L 232,201 M 464,82 L 464,82 "/><path id="path64" style="fill:none;stroke:#ad6eee;stroke-width:1px;stroke-linecap:butt;stroke-linejoin:miter;stroke-opacity:1" d="M 464,82 L 232,234 "/></g></svg>
