<?xml version="1.0" encoding="UTF-8" standalone="no"?>
<!-- Exported by Framsticks (http://www.framsticks.com/) -->

<svg
   xmlns:dc="http://purl.org/dc/elements/1.1/"
   xmlns:cc="http://creativecommons.org/ns#"
   xmlns:rdf="http://www.w3.org/1999/02/22-rdf-syntax-ns#"
   xmlns:svg="http://www.w3.org/2000/svg"
   xmlns="http://www.w3.org/2000/svg"
   xmlns:sodipodi="http://sodipodi.sourceforge.net/DTD/sodipodi-0.dtd"
   xmlns:inkscape="http://www.inkscape.org/namespaces/inkscape"
   id="svg2"
   height="555.40625"
   width="864"
   y="0.0000000"
   x="0.0000000"
   version="1.0"
   inkscape:version="0.48.1 "
   sodipodi:docname="dziecko2_3-4-3.svg">
  <metadata
     id="metadata66">
    <rdf:RDF>
      <cc:Work
         rdf:about="">
        <dc:format>image/svg+xml</dc:format>
        <dc:type
           rdf:resource="http://purl.org/dc/dcmitype/StillImage" />
        <dc:title></dc:title>
      </cc:Work>
    </rdf:RDF>
  </metadata>
  <sodipodi:namedview
     pagecolor="#ffffff"
     bordercolor="#666666"
     borderopacity="1"
     objecttolerance="10"
     gridtolerance="10"
     guidetolerance="10"
     inkscape:pageopacity="0"
     inkscape:pageshadow="2"
     inkscape:window-width="640"
     inkscape:window-height="480"
     id="namedview64"
     showgrid="false"
     inkscape:zoom="0.44822257"
     inkscape:cx="439.18621"
     inkscape:cy="274.30474"
     inkscape:window-x="178"
     inkscape:window-y="350"
     inkscape:window-maximized="0"
     inkscape:current-layer="svg2"
     fit-margin-top="0"
     fit-margin-left="0"
     fit-margin-right="0"
     fit-margin-bottom="0" />
  <defs
     id="defs3" />
  <g
     id="layer1"
     transform="translate(-27,-26.78125)">
    <rect
       id="rect1"
       style="fill:#ffffff;fill-opacity:1;stroke-opacity:0"
       x="27"
       y="370"
       width="92"
       height="92" />
    <path
       id="path2"
       style="fill:none;stroke:#222222;stroke-width:1px;stroke-linecap:butt;stroke-linejoin:miter;stroke-opacity:1"
       d="m 96,416 -46,-46 0,91 46,-45 23,0 m -67,32"
       inkscape:connector-curvature="0" />
    <text
       xml:space="preserve"
       id="text4"
       style="font-size:12px;font-style:normal;font-weight:normal;fill:#222222;fill-opacity:1;stroke:none;font-family:Arial"
       x="52"
       y="457"><tspan
         id="tspan3"
         x="52"
         yt="457">#0 - Nu</tspan></text>
    <path
       id="path5"
       style="fill:none;stroke:#222222;stroke-width:1px;stroke-linecap:butt;stroke-linejoin:miter;stroke-opacity:1"
       d="m 223,150 -46,-46 0,91 46,-45 23,0 m -67,32"
       inkscape:connector-curvature="0" />
    <text
       xml:space="preserve"
       id="text7"
       style="font-size:12px;font-style:normal;font-weight:normal;fill:#222222;fill-opacity:1;stroke:none;font-family:Arial"
       x="179"
       y="191"><tspan
         id="tspan6"
         x="179"
         yt="191">#1 - Nu</tspan></text>
    <path
       id="path8"
       style="fill:none;stroke:#222222;stroke-width:1px;stroke-linecap:butt;stroke-linejoin:miter;stroke-opacity:1"
       d="m 240,499 -46,-46 0,91 46,-45 23,0 m -67,32"
       inkscape:connector-curvature="0" />
    <text
       xml:space="preserve"
       id="text10"
       style="font-size:12px;font-style:normal;font-weight:normal;fill:#222222;fill-opacity:1;stroke:none;font-family:Arial"
       x="196"
       y="540"><tspan
         id="tspan9"
         x="196"
         yt="540">#2 - Nu</tspan></text>
    <path
       id="path11"
       style="fill:none;stroke:#222222;stroke-width:1px;stroke-linecap:butt;stroke-linejoin:miter;stroke-opacity:1"
       d="m 234,324 -46,-46 0,91 46,-45 23,0 m -67,32"
       inkscape:connector-curvature="0" />
    <text
       xml:space="preserve"
       id="text13"
       style="font-size:12px;font-style:normal;font-weight:normal;fill:#222222;fill-opacity:1;stroke:none;font-family:Arial"
       x="190"
       y="365"><tspan
         id="tspan12"
         x="190"
         yt="365">#3 - Nu</tspan></text>
    <path
       id="path14"
       style="fill:none;stroke:#222222;stroke-width:1px;stroke-linecap:butt;stroke-linejoin:miter;stroke-opacity:1"
       d="m 469,375 -46,-46 0,91 46,-45 23,0 m -67,32"
       inkscape:connector-curvature="0" />
    <text
       xml:space="preserve"
       id="text16"
       style="font-size:12px;font-style:normal;font-weight:normal;fill:#222222;fill-opacity:1;stroke:none;font-family:Arial"
       x="425"
       y="416"><tspan
         id="tspan15"
         x="425"
         yt="416">#4 - Nu</tspan></text>
    <path
       id="path17"
       style="fill:none;stroke:#444444;stroke-width:1px;stroke-linecap:butt;stroke-linejoin:miter;stroke-opacity:1"
       d="m 423,352 -18,0"
       inkscape:connector-curvature="0" />
    <path
       id="path18"
       style="fill:none;stroke:#ae6eee;stroke-width:1px;stroke-linecap:butt;stroke-linejoin:miter;stroke-opacity:1"
       d="M 405,352 257,324 m 166,51 -12,0 -148,124 m 160,-101 -6,0 -171,-248 m 216,65"
       inkscape:connector-curvature="0" />
    <path
       id="path19"
       style="fill:none;stroke:#222222;stroke-width:1px;stroke-linecap:butt;stroke-linejoin:miter;stroke-opacity:1"
       d="m 462,215 -46,-46 0,91 46,-45 23,0 m -67,32"
       inkscape:connector-curvature="0" />
    <text
       xml:space="preserve"
       id="text21"
       style="font-size:12px;font-style:normal;font-weight:normal;fill:#222222;fill-opacity:1;stroke:none;font-family:Arial"
       x="418"
       y="256"><tspan
         id="tspan20"
         x="418"
         yt="256">#5 - Nu</tspan></text>
    <path
       id="path22"
       style="fill:none;stroke:#444444;stroke-width:1px;stroke-linecap:butt;stroke-linejoin:miter;stroke-opacity:1"
       d="m 416,192 -18,0"
       inkscape:connector-curvature="0" />
    <path
       id="path23"
       style="fill:none;stroke:#ae6eee;stroke-width:1px;stroke-linecap:butt;stroke-linejoin:miter;stroke-opacity:1"
       d="M 398,192 257,324 m 159,-109 -12,0 -141,284 m 153,-261 -6,0 -164,-88"
       inkscape:connector-curvature="0" />
    <rect
       id="rect24"
       style="fill:#ffffff;fill-opacity:1;stroke-opacity:0"
       x="409"
       y="490"
       width="92"
       height="92" />
    <path
       id="path25"
       style="fill:none;stroke:#222222;stroke-width:1px;stroke-linecap:butt;stroke-linejoin:miter;stroke-opacity:1"
       d="m 478,536 -46,-46 0,91 46,-45 23,0 m -67,32"
       inkscape:connector-curvature="0" />
    <text
       xml:space="preserve"
       id="text27"
       style="font-size:12px;font-style:normal;font-weight:normal;fill:#222222;fill-opacity:1;stroke:none;font-family:Arial"
       x="434"
       y="577"><tspan
         id="tspan26"
         x="434"
         yt="577">#6 - Nu</tspan></text>
    <path
       id="path28"
       style="fill:none;stroke:#444444;stroke-width:1px;stroke-linecap:butt;stroke-linejoin:miter;stroke-opacity:1"
       d="m 432,513 -18,0"
       inkscape:connector-curvature="0" />
    <path
       id="path29"
       style="fill:none;stroke:#ae6eee;stroke-width:1px;stroke-linecap:butt;stroke-linejoin:miter;stroke-opacity:1"
       d="M 414,513 257,324 m 175,212 -12,0 -157,-37 m 169,60 -6,0 L 246,150 M 441,74"
       inkscape:connector-curvature="0" />
    <path
       id="path30"
       style="fill:none;stroke:#222222;stroke-width:1px;stroke-linecap:butt;stroke-linejoin:miter;stroke-opacity:1"
       d="m 441,74 -46,-46 0,91 46,-45 23,0 m -67,32"
       inkscape:connector-curvature="0" />
    <text
       xml:space="preserve"
       id="text32"
       style="font-size:12px;font-style:normal;font-weight:normal;fill:#222222;fill-opacity:1;stroke:none;font-family:Arial"
       x="397"
       y="115"><tspan
         id="tspan31"
         x="397"
         yt="115">#7 - Nu</tspan></text>
    <path
       id="path33"
       style="fill:none;stroke:#444444;stroke-width:1px;stroke-linecap:butt;stroke-linejoin:miter;stroke-opacity:1"
       d="m 395,51 -18,0"
       inkscape:connector-curvature="0" />
    <path
       id="path34"
       style="fill:none;stroke:#ae6eee;stroke-width:1px;stroke-linecap:butt;stroke-linejoin:miter;stroke-opacity:1"
       d="M 377,51 257,324 M 395,74 383,74 263,499 m 132,-402 -6,0 -143,53 m 406,-13"
       inkscape:connector-curvature="0" />
    <path
       id="path35"
       style="fill:none;stroke:#222222;stroke-width:1px;stroke-linecap:butt;stroke-linejoin:miter;stroke-opacity:1"
       d="m 652,137 -46,-46 0,91 46,-45 23,0 m -67,32"
       inkscape:connector-curvature="0" />
    <text
       xml:space="preserve"
       id="text37"
       style="font-size:12px;font-style:normal;font-weight:normal;fill:#222222;fill-opacity:1;stroke:none;font-family:Arial"
       x="608"
       y="178"><tspan
         id="tspan36"
         x="608"
         yt="178">#8 - Nu</tspan></text>
    <path
       id="path38"
       style="fill:none;stroke:#444444;stroke-width:1px;stroke-linecap:butt;stroke-linejoin:miter;stroke-opacity:1"
       d="m 606,109 -19,0"
       inkscape:connector-curvature="0" />
    <path
       id="path39"
       style="fill:none;stroke:#ae6eee;stroke-width:1px;stroke-linecap:butt;stroke-linejoin:miter;stroke-opacity:1"
       d="M 587,109 464,74 m 142,53 -14,0 -91,409 m 105,-390 -10,0 -111,69 m 121,-51 -5,0 -109,211 m 173,-53"
       inkscape:connector-curvature="0" />
    <path
       id="path40"
       style="fill:none;stroke:#222222;stroke-width:1px;stroke-linecap:butt;stroke-linejoin:miter;stroke-opacity:1"
       d="m 665,322 -46,-46 0,91 46,-45 23,0 m -67,32"
       inkscape:connector-curvature="0" />
    <text
       xml:space="preserve"
       id="text42"
       style="font-size:12px;font-style:normal;font-weight:normal;fill:#222222;fill-opacity:1;stroke:none;font-family:Arial"
       x="621"
       y="363"><tspan
         id="tspan41"
         x="621"
         yt="363">#9 - Nu</tspan></text>
    <path
       id="path43"
       style="fill:none;stroke:#444444;stroke-width:1px;stroke-linecap:butt;stroke-linejoin:miter;stroke-opacity:1"
       d="m 619,299 -18,0"
       inkscape:connector-curvature="0" />
    <path
       id="path44"
       style="fill:none;stroke:#ae6eee;stroke-width:1px;stroke-linecap:butt;stroke-linejoin:miter;stroke-opacity:1"
       d="M 601,299 485,215 m 134,107 -12,0 -115,53 m 127,-30 -6,0 -356,-21 m 602,-72"
       inkscape:connector-curvature="0" />
    <path
       id="path45"
       style="fill:none;stroke:#222222;stroke-width:1px;stroke-linecap:butt;stroke-linejoin:miter;stroke-opacity:1"
       d="m 859,252 -46,-46 0,91 46,-45 23,0 m -70,32"
       inkscape:connector-curvature="0" />
    <text
       xml:space="preserve"
       id="text47"
       style="font-size:12px;font-style:normal;font-weight:normal;fill:#222222;fill-opacity:1;stroke:none;font-family:Arial"
       x="812"
       y="293"><tspan
         id="tspan46"
         x="812"
         yt="293">#10 - Nu</tspan></text>
    <path
       id="path48"
       style="fill:none;stroke:#444444;stroke-width:1px;stroke-linecap:butt;stroke-linejoin:miter;stroke-opacity:1"
       d="m 813,224 -19,0"
       inkscape:connector-curvature="0" />
    <path
       id="path49"
       style="fill:none;stroke:#ae6eee;stroke-width:1px;stroke-linecap:butt;stroke-linejoin:miter;stroke-opacity:1"
       d="M 794,224 688,322 M 813,242 799,242 675,137 M 813,261 803,261 464,74 m 349,205 -5,0 -307,257 M 861,91"
       inkscape:connector-curvature="0" />
    <path
       id="path50"
       style="fill:none;stroke:#222222;stroke-width:1px;stroke-linecap:butt;stroke-linejoin:miter;stroke-opacity:1"
       d="m 861,91 -46,-46 0,91 46,-45 23,0 m -70,32"
       inkscape:connector-curvature="0" />
    <text
       xml:space="preserve"
       id="text52"
       style="font-size:12px;font-style:normal;font-weight:normal;fill:#222222;fill-opacity:1;stroke:none;font-family:Arial"
       x="814"
       y="132"><tspan
         id="tspan51"
         x="814"
         yt="132">#11 - Nu</tspan></text>
    <path
       id="path53"
       style="fill:none;stroke:#444444;stroke-width:1px;stroke-linecap:butt;stroke-linejoin:miter;stroke-opacity:1"
       d="m 815,63 -19,0"
       inkscape:connector-curvature="0" />
    <path
       id="path54"
       style="fill:none;stroke:#ae6eee;stroke-width:1px;stroke-linecap:butt;stroke-linejoin:miter;stroke-opacity:1"
       d="M 796,63 688,322 M 815,81 801,81 675,137 m 140,-37 -10,0 -341,-26 m 351,44 -5,0 -309,418 M 868,401"
       inkscape:connector-curvature="0" />
    <path
       id="path55"
       style="fill:none;stroke:#222222;stroke-width:1px;stroke-linecap:butt;stroke-linejoin:miter;stroke-opacity:1"
       d="m 868,401 -46,-46 0,91 46,-45 23,0 m -70,32"
       inkscape:connector-curvature="0" />
    <text
       xml:space="preserve"
       id="text57"
       style="font-size:12px;font-style:normal;font-weight:normal;fill:#222222;fill-opacity:1;stroke:none;font-family:Arial"
       x="821"
       y="442"><tspan
         id="tspan56"
         x="821"
         yt="442">#12 - Nu</tspan></text>
    <path
       id="path58"
       style="fill:none;stroke:#444444;stroke-width:1px;stroke-linecap:butt;stroke-linejoin:miter;stroke-opacity:1"
       d="m 822,373 -19,0"
       inkscape:connector-curvature="0" />
    <path
       id="path59"
       style="fill:none;stroke:#ae6eee;stroke-width:1px;stroke-linecap:butt;stroke-linejoin:miter;stroke-opacity:1"
       d="M 803,373 688,322 m 134,69 -14,0 L 675,137 M 822,410 812,410 464,74 m 358,354 -5,0 -316,108"
       inkscape:connector-curvature="0" />
  </g>
</svg>
