<?xml version="1.0" encoding="UTF-8" standalone="no"?>
<!-- Exported by Framsticks (http://www.framsticks.com/) -->

<svg
   xmlns:dc="http://purl.org/dc/elements/1.1/"
   xmlns:cc="http://creativecommons.org/ns#"
   xmlns:rdf="http://www.w3.org/1999/02/22-rdf-syntax-ns#"
   xmlns:svg="http://www.w3.org/2000/svg"
   xmlns="http://www.w3.org/2000/svg"
   xmlns:sodipodi="http://sodipodi.sourceforge.net/DTD/sodipodi-0.dtd"
   xmlns:inkscape="http://www.inkscape.org/namespaces/inkscape"
   id="svg2"
   height="502.375"
   width="612"
   y="0.0000000"
   x="0.0000000"
   version="1.0"
   inkscape:version="0.48.1 "
   sodipodi:docname="dziecko1_3-4-3.pdf">
  <metadata
     id="metadata81">
    <rdf:RDF>
      <cc:Work
         rdf:about="">
        <dc:format>image/svg+xml</dc:format>
        <dc:type
           rdf:resource="http://purl.org/dc/dcmitype/StillImage" />
        <dc:title></dc:title>
      </cc:Work>
    </rdf:RDF>
  </metadata>
  <sodipodi:namedview
     pagecolor="#ffffff"
     bordercolor="#666666"
     borderopacity="1"
     objecttolerance="10"
     gridtolerance="10"
     guidetolerance="10"
     inkscape:pageopacity="0"
     inkscape:pageshadow="2"
     inkscape:window-width="640"
     inkscape:window-height="480"
     id="namedview79"
     showgrid="false"
     fit-margin-top="0"
     fit-margin-left="0"
     fit-margin-right="0"
     fit-margin-bottom="0"
     inkscape:zoom="0.44822257"
     inkscape:cx="307.53793"
     inkscape:cy="241.53922"
     inkscape:window-x="0"
     inkscape:window-y="0"
     inkscape:window-maximized="0"
     inkscape:current-layer="svg2" />
  <defs
     id="defs3" />
  <g
     id="layer1"
     transform="translate(-14,-15.8125)">
    <path
       id="path1"
       style="fill:none;stroke:#222222;stroke-width:1px;stroke-linecap:butt;stroke-linejoin:miter;stroke-opacity:1"
       d="m 77,164 -38,-37 0,74 38,-37 19,0 m -59,24"
       inkscape:connector-curvature="0" />
    <text
       xml:space="preserve"
       id="text3"
       style="font-size:12px;font-style:normal;font-weight:normal;fill:#222222;fill-opacity:1;stroke:none;font-family:Arial"
       x="37"
       y="197"><tspan
         id="tspan2"
         x="37"
         yt="197">#0 - Nu</tspan></text>
    <rect
       id="rect4"
       style="fill:#ffffff;fill-opacity:1;stroke-opacity:0"
       x="18"
       y="410"
       width="75"
       height="75" />
    <path
       id="path5"
       style="fill:none;stroke:#222222;stroke-width:1px;stroke-linecap:butt;stroke-linejoin:miter;stroke-opacity:1"
       d="m 74,447 -38,-37 0,74 38,-37 19,0 m -59,24"
       inkscape:connector-curvature="0" />
    <text
       xml:space="preserve"
       id="text7"
       style="font-size:12px;font-style:normal;font-weight:normal;fill:#222222;fill-opacity:1;stroke:none;font-family:Arial"
       x="34"
       y="480"><tspan
         id="tspan6"
         x="34"
         yt="480">#1 - Nu</tspan></text>
    <rect
       id="rect8"
       style="fill:#ffffff;fill-opacity:1;stroke-opacity:0"
       x="14"
       y="275"
       width="75"
       height="75" />
    <path
       id="path9"
       style="fill:none;stroke:#222222;stroke-width:1px;stroke-linecap:butt;stroke-linejoin:miter;stroke-opacity:1"
       d="m 70,312 -38,-37 0,74 38,-37 19,0 m -59,24"
       inkscape:connector-curvature="0" />
    <text
       xml:space="preserve"
       id="text11"
       style="font-size:12px;font-style:normal;font-weight:normal;fill:#222222;fill-opacity:1;stroke:none;font-family:Arial"
       x="30"
       y="345"><tspan
         id="tspan10"
         x="30"
         yt="345">#2 - Nu</tspan></text>
    <path
       id="path12"
       style="fill:none;stroke:#222222;stroke-width:1px;stroke-linecap:butt;stroke-linejoin:miter;stroke-opacity:1"
       d="m 177,148 -38,-37 0,74 38,-37 19,0 m -59,24"
       inkscape:connector-curvature="0" />
    <text
       xml:space="preserve"
       id="text14"
       style="font-size:12px;font-style:normal;font-weight:normal;fill:#222222;fill-opacity:1;stroke:none;font-family:Arial"
       x="137"
       y="181"><tspan
         id="tspan13"
         x="137"
         yt="181">#3 - Nu</tspan></text>
    <path
       id="path15"
       style="fill:none;stroke:#444444;stroke-width:1px;stroke-linecap:butt;stroke-linejoin:miter;stroke-opacity:1"
       d="m 139,129 -14,0"
       inkscape:connector-curvature="0" />
    <path
       id="path16"
       style="fill:none;stroke:#ae6eee;stroke-width:1px;stroke-linecap:butt;stroke-linejoin:miter;stroke-opacity:1"
       d="M 125,129 89,312 m 50,-164 -9,0 -37,299 m 46,-280 -4,0"
       inkscape:connector-curvature="0" />
    <path
       id="path17"
       style="fill:none;stroke:#ad6eee;stroke-width:1px;stroke-linecap:butt;stroke-linejoin:miter;stroke-opacity:1"
       d="M 135,167 96,164 M 232,351"
       inkscape:connector-curvature="0" />
    <path
       id="path18"
       style="fill:none;stroke:#222222;stroke-width:1px;stroke-linecap:butt;stroke-linejoin:miter;stroke-opacity:1"
       d="m 232,351 -38,-37 0,74 38,-37 19,0 m -59,24"
       inkscape:connector-curvature="0" />
    <text
       xml:space="preserve"
       id="text20"
       style="font-size:12px;font-style:normal;font-weight:normal;fill:#222222;fill-opacity:1;stroke:none;font-family:Arial"
       x="192"
       y="384"><tspan
         id="tspan19"
         x="192"
         yt="384">#4 - Nu</tspan></text>
    <path
       id="path21"
       style="fill:none;stroke:#444444;stroke-width:1px;stroke-linecap:butt;stroke-linejoin:miter;stroke-opacity:1"
       d="m 194,332 -14,0"
       inkscape:connector-curvature="0" />
    <path
       id="path22"
       style="fill:none;stroke:#ae6eee;stroke-width:1px;stroke-linecap:butt;stroke-linejoin:miter;stroke-opacity:1"
       d="m 180,332 16,-184 m -2,203 -9,0 -96,-39 m 105,58 -4,0 -97,77"
       inkscape:connector-curvature="0" />
    <rect
       id="rect23"
       style="fill:#ffffff;fill-opacity:1;stroke-opacity:0"
       x="241"
       y="129"
       width="75"
       height="75" />
    <path
       id="path24"
       style="fill:none;stroke:#222222;stroke-width:1px;stroke-linecap:butt;stroke-linejoin:miter;stroke-opacity:1"
       d="m 297,166 -38,-37 0,74 38,-37 19,0 m -59,24"
       inkscape:connector-curvature="0" />
    <text
       xml:space="preserve"
       id="text26"
       style="font-size:12px;font-style:normal;font-weight:normal;fill:#222222;fill-opacity:1;stroke:none;font-family:Arial"
       x="257"
       y="199"><tspan
         id="tspan25"
         x="257"
         yt="199">#5 - Nu</tspan></text>
    <path
       id="path27"
       style="fill:none;stroke:#444444;stroke-width:1px;stroke-linecap:butt;stroke-linejoin:miter;stroke-opacity:1"
       d="m 259,147 -14,0"
       inkscape:connector-curvature="0" />
    <path
       id="path28"
       style="fill:none;stroke:#ae6eee;stroke-width:1px;stroke-linecap:butt;stroke-linejoin:miter;stroke-opacity:1"
       d="m 245,147 -49,1 m 63,18 -9,0 -161,146 m 170,-127 -4,0 -162,262"
       inkscape:connector-curvature="0" />
    <rect
       id="rect29"
       style="fill:#ffffff;fill-opacity:1;stroke-opacity:0"
       x="181"
       y="421"
       width="75"
       height="75" />
    <path
       id="path30"
       style="fill:none;stroke:#222222;stroke-width:1px;stroke-linecap:butt;stroke-linejoin:miter;stroke-opacity:1"
       d="m 237,458 -38,-37 0,74 38,-37 19,0 m -59,24"
       inkscape:connector-curvature="0" />
    <text
       xml:space="preserve"
       id="text32"
       style="font-size:12px;font-style:normal;font-weight:normal;fill:#222222;fill-opacity:1;stroke:none;font-family:Arial"
       x="197"
       y="491"><tspan
         id="tspan31"
         x="197"
         yt="491">#6 - Nu</tspan></text>
    <path
       id="path33"
       style="fill:none;stroke:#444444;stroke-width:1px;stroke-linecap:butt;stroke-linejoin:miter;stroke-opacity:1"
       d="m 199,439 -14,0"
       inkscape:connector-curvature="0" />
    <path
       id="path34"
       style="fill:none;stroke:#ae6eee;stroke-width:1px;stroke-linecap:butt;stroke-linejoin:miter;stroke-opacity:1"
       d="m 185,439 11,-291 m 3,310 -9,0 L 89,312 m 110,165 -4,0 -102,-30"
       inkscape:connector-curvature="0" />
    <rect
       id="rect35"
       style="fill:#ffffff;fill-opacity:1;stroke-opacity:0"
       x="259"
       y="17"
       width="75"
       height="75" />
    <path
       id="path36"
       style="fill:none;stroke:#222222;stroke-width:1px;stroke-linecap:butt;stroke-linejoin:miter;stroke-opacity:1"
       d="m 315,54 -38,-37 0,74 38,-37 19,0 m -59,24"
       inkscape:connector-curvature="0" />
    <text
       xml:space="preserve"
       id="text38"
       style="font-size:12px;font-style:normal;font-weight:normal;fill:#222222;fill-opacity:1;stroke:none;font-family:Arial"
       x="275"
       y="87"><tspan
         id="tspan37"
         x="275"
         yt="87">#7 - Nu</tspan></text>
    <path
       id="path39"
       style="fill:none;stroke:#444444;stroke-width:1px;stroke-linecap:butt;stroke-linejoin:miter;stroke-opacity:1"
       d="m 277,35 -14,0"
       inkscape:connector-curvature="0" />
    <path
       id="path40"
       style="fill:none;stroke:#ae6eee;stroke-width:1px;stroke-linecap:butt;stroke-linejoin:miter;stroke-opacity:1"
       d="M 263,35 196,148 M 277,54 268,54 89,312 M 277,73 273,73 93,447 m 300,-72"
       inkscape:connector-curvature="0" />
    <path
       id="path41"
       style="fill:none;stroke:#222222;stroke-width:1px;stroke-linecap:butt;stroke-linejoin:miter;stroke-opacity:1"
       d="m 393,375 -38,-37 0,74 38,-37 19,0 m -59,24"
       inkscape:connector-curvature="0" />
    <text
       xml:space="preserve"
       id="text43"
       style="font-size:12px;font-style:normal;font-weight:normal;fill:#222222;fill-opacity:1;stroke:none;font-family:Arial"
       x="353"
       y="408"><tspan
         id="tspan42"
         x="353"
         yt="408">#8 - Nu</tspan></text>
    <path
       id="path44"
       style="fill:none;stroke:#444444;stroke-width:1px;stroke-linecap:butt;stroke-linejoin:miter;stroke-opacity:1"
       d="m 355,356 -14,0"
       inkscape:connector-curvature="0" />
    <path
       id="path45"
       style="fill:none;stroke:#ad6eee;stroke-width:1px;stroke-linecap:butt;stroke-linejoin:miter;stroke-opacity:1"
       d="m 341,356 -85,102 m 99,-83 -9,0"
       inkscape:connector-curvature="0" />
    <path
       id="path46"
       style="fill:none;stroke:#ae6eee;stroke-width:1px;stroke-linecap:butt;stroke-linejoin:miter;stroke-opacity:1"
       d="M 346,375 316,166 m 39,228 -4,0 -100,-43 m 142,-81"
       inkscape:connector-curvature="0" />
    <path
       id="path47"
       style="fill:none;stroke:#222222;stroke-width:1px;stroke-linecap:butt;stroke-linejoin:miter;stroke-opacity:1"
       d="m 393,270 -38,-37 0,74 38,-37 19,0 m -59,24"
       inkscape:connector-curvature="0" />
    <text
       xml:space="preserve"
       id="text49"
       style="font-size:12px;font-style:normal;font-weight:normal;fill:#222222;fill-opacity:1;stroke:none;font-family:Arial"
       x="353"
       y="303"><tspan
         id="tspan48"
         x="353"
         yt="303">#9 - Nu</tspan></text>
    <path
       id="path50"
       style="fill:none;stroke:#444444;stroke-width:1px;stroke-linecap:butt;stroke-linejoin:miter;stroke-opacity:1"
       d="m 355,251 -14,0"
       inkscape:connector-curvature="0" />
    <path
       id="path51"
       style="fill:none;stroke:#ad6eee;stroke-width:1px;stroke-linecap:butt;stroke-linejoin:miter;stroke-opacity:1"
       d="m 341,251 -85,207 m 99,-188 -9,0"
       inkscape:connector-curvature="0" />
    <path
       id="path52"
       style="fill:none;stroke:#ae6eee;stroke-width:1px;stroke-linecap:butt;stroke-linejoin:miter;stroke-opacity:1"
       d="M 346,270 316,166 m 39,123 -4,0 -100,62 m 142,129"
       inkscape:connector-curvature="0" />
    <path
       id="path53"
       style="fill:none;stroke:#222222;stroke-width:1px;stroke-linecap:butt;stroke-linejoin:miter;stroke-opacity:1"
       d="m 393,480 -38,-37 0,74 38,-37 19,0 m -62,24"
       inkscape:connector-curvature="0" />
    <text
       xml:space="preserve"
       id="text55"
       style="font-size:12px;font-style:normal;font-weight:normal;fill:#222222;fill-opacity:1;stroke:none;font-family:Arial"
       x="350"
       y="513"><tspan
         id="tspan54"
         x="350"
         yt="513">#10 - Nu</tspan></text>
    <path
       id="path56"
       style="fill:none;stroke:#444444;stroke-width:1px;stroke-linecap:butt;stroke-linejoin:miter;stroke-opacity:1"
       d="m 355,461 -14,0"
       inkscape:connector-curvature="0" />
    <path
       id="path57"
       style="fill:none;stroke:#ad6eee;stroke-width:1px;stroke-linecap:butt;stroke-linejoin:miter;stroke-opacity:1"
       d="m 341,461 -85,-3 m 99,22 -9,0"
       inkscape:connector-curvature="0" />
    <path
       id="path58"
       style="fill:none;stroke:#ae6eee;stroke-width:1px;stroke-linecap:butt;stroke-linejoin:miter;stroke-opacity:1"
       d="M 346,480 316,166 m 39,333 -4,0 -100,-148 m 354,-98"
       inkscape:connector-curvature="0" />
    <path
       id="path59"
       style="fill:none;stroke:#222222;stroke-width:1px;stroke-linecap:butt;stroke-linejoin:miter;stroke-opacity:1"
       d="m 605,253 -38,-37 0,74 38,-37 19,0 m -62,24"
       inkscape:connector-curvature="0" />
    <text
       xml:space="preserve"
       id="text61"
       style="font-size:12px;font-style:normal;font-weight:normal;fill:#222222;fill-opacity:1;stroke:none;font-family:Arial"
       x="562"
       y="286"><tspan
         id="tspan60"
         x="562"
         yt="286">#11 - Nu</tspan></text>
    <path
       id="path62"
       style="fill:none;stroke:#444444;stroke-width:1px;stroke-linecap:butt;stroke-linejoin:miter;stroke-opacity:1"
       d="m 567,231 -15,0"
       inkscape:connector-curvature="0" />
    <path
       id="path63"
       style="fill:none;stroke:#ae6eee;stroke-width:1px;stroke-linecap:butt;stroke-linejoin:miter;stroke-opacity:1"
       d="M 552,231 412,480 m 155,-234 -11,0 -144,24 m 155,-9 -7,0 -148,114 m 155,-99 -3,0 L 334,54"
       inkscape:connector-curvature="0" />
    <rect
       id="rect64"
       style="fill:#ffffff;fill-opacity:1;stroke-opacity:0"
       x="507"
       y="53"
       width="75"
       height="75" />
    <path
       id="path65"
       style="fill:none;stroke:#222222;stroke-width:1px;stroke-linecap:butt;stroke-linejoin:miter;stroke-opacity:1"
       d="m 563,90 -38,-37 0,74 38,-37 19,0 m -62,24"
       inkscape:connector-curvature="0" />
    <text
       xml:space="preserve"
       id="text67"
       style="font-size:12px;font-style:normal;font-weight:normal;fill:#222222;fill-opacity:1;stroke:none;font-family:Arial"
       x="520"
       y="123"><tspan
         id="tspan66"
         x="520"
         yt="123">#12 - Nu</tspan></text>
    <path
       id="path68"
       style="fill:none;stroke:#444444;stroke-width:1px;stroke-linecap:butt;stroke-linejoin:miter;stroke-opacity:1"
       d="m 525,68 -15,0"
       inkscape:connector-curvature="0" />
    <path
       id="path69"
       style="fill:none;stroke:#ae6eee;stroke-width:1px;stroke-linecap:butt;stroke-linejoin:miter;stroke-opacity:1"
       d="M 510,68 412,480 M 525,83 514,83 412,270 M 525,98 518,98 412,375 m 113,-262 -3,0 -188,-59 m 273,386"
       inkscape:connector-curvature="0" />
    <path
       id="path70"
       style="fill:none;stroke:#222222;stroke-width:1px;stroke-linecap:butt;stroke-linejoin:miter;stroke-opacity:1"
       d="m 607,440 -38,-37 0,74 38,-37 19,0 m -62,24"
       inkscape:connector-curvature="0" />
    <text
       xml:space="preserve"
       id="text72"
       style="font-size:12px;font-style:normal;font-weight:normal;fill:#222222;fill-opacity:1;stroke:none;font-family:Arial"
       x="564"
       y="473"><tspan
         id="tspan71"
         x="564"
         yt="473">#13 - Nu</tspan></text>
    <path
       id="path73"
       style="fill:none;stroke:#444444;stroke-width:1px;stroke-linecap:butt;stroke-linejoin:miter;stroke-opacity:1"
       d="m 569,418 -15,0"
       inkscape:connector-curvature="0" />
    <path
       id="path74"
       style="fill:none;stroke:#ae6eee;stroke-width:1px;stroke-linecap:butt;stroke-linejoin:miter;stroke-opacity:1"
       d="m 554,418 -142,62 m 157,-47 -11,0 -146,-163 m 157,178 -7,0 -150,-73 m 157,88 -3,0 L 334,54"
       inkscape:connector-curvature="0" />
  </g>
</svg>
